<svg xmlns="http://www.w3.org/2000/svg" width="1068.7" height="601.6" viewBox="0 0 1068.7 601.6"><defs><style>.cls-1{fill:#f69885;}.cls-2{fill:#f47c68;}.cls-3{fill:#eb6855;}.cls-4{fill:#fff3e7;}.cls-5{fill:#995e4c;}.cls-6{fill:#7e4435;}.cls-7{fill:#8b5446;}.cls-8{fill:#fff;}.cls-9{fill:#f9b733;}.cls-10{fill:#e65d5b;}.cls-11{fill:#ce4144;}.cls-12{fill:#a6503d;}.cls-13{fill:#723d37;}.cls-14{fill:#e18a74;}.cls-15{fill:#f7997d;}.cls-16{fill:#aa5d49;}.cls-17{fill:#f28c27;}.cls-18{fill:#4f4671;}.cls-19{fill:#342a4e;}.cls-20,.cls-21{fill:#231f20;}.cls-21{font-size:88px;font-family:Sniglet-ExtraBold, Sniglet;font-weight:800;}.cls-22{font-size:33px;}.cls-23{letter-spacing:-0.01em;}.cls-24{font-size:51px;}</style></defs><g id="Layer_2" data-name="Layer 2"><g id="Capa_1" data-name="Capa 1"><path class="cls-1" d="M88.3,601.3,102,487.5S90.1,468.4,82.4,452a83.3,83.3,0,0,1-5.9-15c-3.2-13.4-2.3-33.7-2-39.6.1-1.1.1-1.7.1-1.7l71.2,8.9-2.2,60.9-.5,12.7,5.3,123.1Z"/><path class="cls-2" d="M145.8,404.6l-2.2,60.9c-.1.1-.1.3-.2.4a24.3,24.3,0,0,1-32.8,10c-11-5.9-20.4-14.4-28.2-23.9a83.3,83.3,0,0,1-5.9-15c-3.2-13.4-2.3-33.7-2-39.6.1-1.1.1-1.7.1-1.7Z"/><path class="cls-3" d="M137,436.4H82.7a1.1,1.1,0,0,1,0-2.2H137a1.1,1.1,0,0,1,0,2.2Z"/><path class="cls-4" d="M0,429.7H207v-271L.4,157.7S3.6,429.7,0,429.7Z"/><path class="cls-1" d="M104.2,482.2a12.3,12.3,0,0,0,18.8-2.8c3.4-5.7,2.9-11.9-.8-19.8-6.4-13.8-15.8-17.7-15.8-17.7s8.8-16,5.1-26.5-8.5-6.3-9.5-3c-1.3,4.8-9.2,22.1-10.6,30.3C88.4,459.2,92.4,471.6,104.2,482.2Z"/><path class="cls-3" d="M105.1,448.7h-.2a1.1,1.1,0,0,1-.8-1.4c.7-2.8,1.7-5.4,2.6-8s1.8-5.2,2.5-7.9a48.4,48.4,0,0,0,1.7-12.5,11.6,11.6,0,0,0-4.9-9.1,1.1,1.1,0,0,1-.2-1.6,1.1,1.1,0,0,1,1.5-.2,13.8,13.8,0,0,1,5.7,10.8,45.4,45.4,0,0,1-1.7,13.2,83.4,83.4,0,0,1-2.6,8c-.8,2.6-1.8,5.2-2.5,7.9A1.1,1.1,0,0,1,105.1,448.7Z"/><path class="cls-3" d="M119.3,484.6a1.3,1.3,0,0,1-.9-.4,1.1,1.1,0,0,1,.2-1.6,14.2,14.2,0,0,0,5.3-9.6,25.6,25.6,0,0,0-1.6-11.5,31.9,31.9,0,0,0-6.1-10.9,19.3,19.3,0,0,0-9.9-6.1,1.1,1.1,0,0,1-.8-1.4,1.2,1.2,0,0,1,1.4-.7,21.7,21.7,0,0,1,10.9,6.7,34,34,0,0,1,6.6,11.7,26.6,26.6,0,0,1,1.6,12.4,16.1,16.1,0,0,1-6.1,11.2Z"/><path class="cls-3" d="M124.2,491a13.9,13.9,0,0,1-5.7-1.2,1,1,0,0,1-.5-1.4,1.1,1.1,0,0,1,1.4-.6,11.4,11.4,0,0,0,9.4.1,1.1,1.1,0,0,1,1.5.5,1.2,1.2,0,0,1-.6,1.5A12.9,12.9,0,0,1,124.2,491Z"/><path class="cls-3" d="M125.5,495.8a9.8,9.8,0,0,1-4.1-.9,1.1,1.1,0,0,1-.5-1.5,1.1,1.1,0,0,1,1.5-.5,7.9,7.9,0,0,0,4.8.6,1.1,1.1,0,0,1,1.3.8,1.2,1.2,0,0,1-.8,1.3A8.2,8.2,0,0,1,125.5,495.8Z"/><path class="cls-5" d="M646.3,600c-1.1-88.7-2.9-176.4-2.9-176.4l-38-7.6-45,184Z"/><path class="cls-6" d="M586.6,590.6a1.1,1.1,0,0,1-.7-.3,17.1,17.1,0,0,0-13.8-3.3,1.3,1.3,0,0,1-1.5-1,1.2,1.2,0,0,1,1-1.4,19.5,19.5,0,0,1,15.8,3.8,1.2,1.2,0,0,1,.2,1.7A1.2,1.2,0,0,1,586.6,590.6Z"/><path class="cls-5" d="M601.6,413.9a22.4,22.4,0,0,0,2.8,9.7c7.3,12.8,26.3,17.6,37,9,18-14.6,21.5-39.1,21.5-39.1-.9-12.6-11.3-18.5-24.4-24.9l-1-.4C624,361.7,600.3,393.3,601.6,413.9Z"/><path class="cls-7" d="M601.6,413.5a22.4,22.4,0,0,0,2.8,9.7H638a5.8,5.8,0,0,0,5.7-5.4l.9-18.1,10.8-10.5-8.9-6.7-8-14.3-1-.4C624,361.3,600.3,392.9,601.6,413.5Z"/><path class="cls-5" d="M396.3,600l-45-184-38,7.6s-1.8,87.7-2.9,176.4Z"/><path class="cls-6" d="M362.6,589.3a1.6,1.6,0,0,1-1.1-.5,1.3,1.3,0,0,1,.4-1.7,18,18,0,0,1,18.2-1.3,1.3,1.3,0,0,1,.5,1.7,1.2,1.2,0,0,1-1.6.5,16,16,0,0,0-15.7,1.1A1.1,1.1,0,0,1,362.6,589.3Z"/><path class="cls-5" d="M355.1,413.9a21.2,21.2,0,0,1-2.9,9.7c-7.2,12.8-26.2,17.6-36.9,9-18-14.6-21.5-39.1-21.5-39.1.8-12.6,11.3-18.5,24.4-24.9l1-.4C332.7,361.7,356.4,393.3,355.1,413.9Z"/><path class="cls-7" d="M355.1,413.5a21.2,21.2,0,0,1-2.9,9.7H318.7a5.6,5.6,0,0,1-5.7-5.4l-.9-18.1-10.8-10.5,8.9-6.7,8-14.3,1-.4C332.7,361.3,356.4,392.9,355.1,413.5Z"/><rect class="cls-8" x="318.8" y="230.5" width="318.2" height="186.02"/><path class="cls-5" d="M331.8,381.3s4.9.9,6-3.1c2.8-10.1-10.1-19-18.8-22.4v-7.3s11.5,10.8,13.9,5.3-4.5-13.1-11.5-17.7-11.6-1.6-12.8,1.5-1.7,8.6,5.2,18.6c-3.6,1.4-6.4,3.5-5.7,11.4-5.5,1.2-18.6,10.9-13.8,28.1h.2a22.7,22.7,0,0,1,23,2.7c2.1,1.7,4.2,3,5.4,3.2,3.5.6,7.1-.7,6.7-6.4C334.5,393,336.3,387.7,331.8,381.3Z"/><path class="cls-6" d="M323.8,403.4l-2.1-.2a19.1,19.1,0,0,1-7.1-3.9,1.2,1.2,0,0,1,1.7-1.7,17.4,17.4,0,0,0,6,3.2c1.6.4,3.9.1,4.6-1.1a5.8,5.8,0,0,0,.6-5.1c-1.5-4.7-8.3-9.8-20.3-15l-1.1-.5a1.2,1.2,0,0,1-.6-1.6,1.2,1.2,0,0,1,1.7-.6l1,.4c4.7,2.1,19,8.4,21.7,16.6a8.5,8.5,0,0,1-.9,7.1C328,402.7,325.9,403.4,323.8,403.4Z"/><path class="cls-6" d="M313.7,356.7a1.1,1.1,0,0,1-.9-.4,23.4,23.4,0,0,1-6.4-10.4c-1.3-4.4-.2-10.4,4.5-12.7s8.3-.4,10.6.8c6.9,3.4,13.6,10.3,12.9,18.2a4.7,4.7,0,0,1-3.5,4,7.4,7.4,0,0,1-5-.7,26,26,0,0,1-3.6-2.7l-6.4-5.7a1.2,1.2,0,0,1-.1-1.7,1.3,1.3,0,0,1,1.8-.1l6.3,5.6a17.2,17.2,0,0,0,3.1,2.4,4.3,4.3,0,0,0,3.2.5A2.2,2.2,0,0,0,332,352c.5-6.7-5.4-12.8-11.6-15.8-1.9-1-5.5-2.3-8.4-.8s-4.3,6.3-3.3,9.8,3,6.4,5.9,9.5a1.2,1.2,0,0,1-.1,1.7A1.1,1.1,0,0,1,313.7,356.7Z"/><path class="cls-6" d="M329.6,396.4a1.2,1.2,0,0,1-1-.6,1.3,1.3,0,0,1,.3-1.7c2.3-1.5,2.9-2.2,3.5-4.6a10,10,0,0,0-1.2-7.4,19.7,19.7,0,0,0-5.5-5.8,37.9,37.9,0,0,0-13.9-6.6,1.3,1.3,0,0,1-1-1.5,1.4,1.4,0,0,1,1.5-.9,40.8,40.8,0,0,1,14.9,7,23.1,23.1,0,0,1,6.1,6.6,12.7,12.7,0,0,1,1.5,9.2c-.8,3.1-1.8,4.2-4.5,6.1Z"/><path class="cls-6" d="M333.6,383.9a1.4,1.4,0,0,1-1.2-1,1.4,1.4,0,0,1,.9-1.5c2-.4,2.6-1.7,2.6-5.2s-1.1-5-3.2-7.9A32.6,32.6,0,0,0,317.6,357a1.3,1.3,0,0,1-.7-1.6,1.2,1.2,0,0,1,1.5-.8,36,36,0,0,1,16.3,12.2c2.4,3.4,3.6,6.4,3.6,9.4s.1,6.5-4.4,7.6Z"/><path class="cls-5" d="M624.9,381.3s-4.9.9-6-3.1c-2.8-10.1,10-19,18.7-22.4v-7.3s-11.4,10.8-13.8,5.3,4.5-13.1,11.5-17.7,11.6-1.6,12.8,1.5,1.7,8.6-5.2,18.6c3.6,1.4,6.4,3.5,5.7,11.4,5.5,1.2,18.6,10.9,13.8,28.1h-.2a22.7,22.7,0,0,0-23,2.7c-2.1,1.7-4.2,3-5.4,3.2-3.5.6-7.1-.7-6.7-6.4C622.2,393,620.4,387.7,624.9,381.3Z"/><path class="cls-6" d="M632.9,403.4c-2.1,0-4.2-.7-5.2-2.4a8.2,8.2,0,0,1-.9-7.1c2.7-8.2,17-14.5,21.7-16.6l1-.4a1.2,1.2,0,0,1,1.7.6,1.2,1.2,0,0,1-.6,1.6l-1.1.5c-12,5.2-18.8,10.3-20.3,15a5.8,5.8,0,0,0,.6,5.1c.7,1.2,2.9,1.5,4.6,1.1a17.4,17.4,0,0,0,6-3.2,1.2,1.2,0,0,1,1.7,1.7,19.1,19.1,0,0,1-7.1,3.9Z"/><path class="cls-6" d="M643,356.7a1.1,1.1,0,0,1-.8-.3,1.2,1.2,0,0,1-.1-1.7c2.9-3.1,4.7-5.5,5.8-9.5s.2-8.2-3.2-9.8-6.5-.2-8.4.8c-6.2,3-12.1,9.1-11.6,15.8a2.2,2.2,0,0,0,1.8,1.8,4.3,4.3,0,0,0,3.2-.5,17.2,17.2,0,0,0,3.1-2.4l6.3-5.6a1.2,1.2,0,0,1,1.7.1,1.1,1.1,0,0,1-.1,1.7l-6.3,5.7a26,26,0,0,1-3.6,2.7,7.4,7.4,0,0,1-5,.7,4.7,4.7,0,0,1-3.5-4c-.7-7.9,6-14.8,12.9-18.2,2.3-1.2,6.7-2.8,10.6-.8s5.8,8.2,4.5,12.7a23.4,23.4,0,0,1-6.4,10.4A1.1,1.1,0,0,1,643,356.7Z"/><path class="cls-6" d="M627.1,396.4l-.7-.2c-2.7-1.9-3.7-3-4.5-6.1a12.3,12.3,0,0,1,1.5-9.2,23.1,23.1,0,0,1,6.1-6.6,40.8,40.8,0,0,1,14.9-7,1.2,1.2,0,0,1,1.4.9,1.1,1.1,0,0,1-.9,1.5,37.9,37.9,0,0,0-13.9,6.6,18.5,18.5,0,0,0-5.5,5.8,10,10,0,0,0-1.2,7.4c.6,2.4,1.2,3.1,3.5,4.6a1.3,1.3,0,0,1,.3,1.7A1.4,1.4,0,0,1,627.1,396.4Z"/><path class="cls-6" d="M623.3,383H623c-4-.9-6.2-5.3-5.9-8.9s1.8-6.2,4.7-9.4a36.6,36.6,0,0,1,16.6-10.5,1.3,1.3,0,0,1,1.6.8,1.2,1.2,0,0,1-.8,1.5,34.6,34.6,0,0,0-15.5,9.8c-2.6,2.8-4,5.4-4.2,7.9s1.4,5.8,4,6.3a1.3,1.3,0,0,1,1,1.5A1.3,1.3,0,0,1,623.3,383Z"/><path class="cls-9" d="M307.4,443.4c1.8-.6,50.3-13.2,50.3-13.2l1.2,4.8s-50.3,17.4-50.3,15.6A58.1,58.1,0,0,0,307.4,443.4Z"/><path class="cls-9" d="M307.4,455.3l52.4-17.2,1.2,4.8s-52.4,21.4-52.4,19.6A58.1,58.1,0,0,0,307.4,455.3Z"/><path class="cls-10" d="M736.4,350.5s-1.6,11.7,10.1,26,24,30.6,19.9,49.9-4,35.7,7.7,48.5,13.2,31.1,5.1,58.1,19.4,36.7,16.3,68.3H634.9S631.8,586,639,559s16.8-36.2,9.7-54.6-2.1-40.8,6.1-55,15.8-24.5,12.7-42.3-1.4-32.5,14.4-48.1S736.4,350.5,736.4,350.5Z"/><path class="cls-2" d="M714.1,340.6H689.8s-16.4-10.8-13.5-28.4,13.5-35,28-34.7,33.6,14.1,34.3,28.1S733,340.3,714.1,340.6Z"/><path class="cls-11" d="M684.6,339l49.3-2.2a3.2,3.2,0,0,1,3.4,3.3l-.3,16.8L681.8,359l-.3-16.7A3.3,3.3,0,0,1,684.6,339Z"/><polygon class="cls-12" points="689.4 461.1 707.1 461.1 707.5 214.3 707.8 12.5 707.8 0 690.2 0 690.2 12.5 689.8 214 689.4 461.1"/><polygon class="cls-13" points="689.8 204.3 690.2 12.5 707.8 12.5 707.5 204.3 689.8 204.3"/><path class="cls-1" d="M708.2,273.2c.4-3.6-7.1-5.5-12.6-6.1s-22.8-5.7-27.5-1-3.9,12,.6,14c-3.9,6.4-3.7,12.5,2.2,13.9-2.4,5.1-2.2,14.7,4.7,15.1-2.4,8.7,1.8,12.9,6.9,13.6,10,1.4,21-1.6,23.8-4.7s1.1-8.7-4.8-10c0,0,6.1-.2,6.1-6.5,0-4.2-5.5-5.9-5.5-5.9s6.1-2,5.1-9.5C710,281.4,708.2,273.2,708.2,273.2Z"/><path class="cls-1" d="M726.8,332.4a16,16,0,0,0,4-2.8c6.8-6.5,8.5-18.2,7.7-27.2-1.8-19.2-12.5-24.4-17.4-26.8s-28.7-5.2-32.4-2.5-2.4,10.1,3.7,13.5,16.5,1.5,21,4.5,5.9,6.2,5.9,6.2-7.4,3.3-9.2,8.8c-3,8.9-4.2,25.8,8.4,27.8A14.2,14.2,0,0,0,726.8,332.4Z"/><polygon class="cls-4" points="836 26.4 510.5 26.4 507.8 194.2 836.7 194.2 836 26.4"/><path class="cls-3" d="M684.1,310.6c-2.6,0-5.2-.1-7.7-.3a1,1,0,0,1-1-1.1,1.1,1.1,0,0,1,1.2-1,119.4,119.4,0,0,0,24.7-1.1,1,1,0,0,1,1.2.9,1,1,0,0,1-.9,1.2A109.8,109.8,0,0,1,684.1,310.6Z"/><path class="cls-3" d="M693.8,296.6a161.8,161.8,0,0,1-20.9-1.4,1.1,1.1,0,0,1-.9-1.3,1,1,0,0,1,1.2-.9,153,153,0,0,0,27.9,1.2,1,1,0,0,1,1.1,1,1,1,0,0,1-1,1.2Z"/><path class="cls-3" d="M721.1,302.8a1,1,0,0,1-1-.8,16.6,16.6,0,0,0-8.7-9.7,36.1,36.1,0,0,0-8.3-2.1h-.6a40.6,40.6,0,0,1-8.4-1.8,14.9,14.9,0,0,1-7.5-6c-1.7-3.2-1.5-7.2.6-9.7a1.1,1.1,0,0,1,1.5-.2,1.1,1.1,0,0,1,.2,1.6,6.5,6.5,0,0,0-.3,7.2,11.6,11.6,0,0,0,6.3,5,34.9,34.9,0,0,0,7.9,1.8h.6a31.4,31.4,0,0,1,9,2.3,18.3,18.3,0,0,1,9.7,10.9,1.1,1.1,0,0,1-.7,1.4Z"/><path class="cls-3" d="M687.6,283h-.1l-15.7-1.8a1.1,1.1,0,1,1,.2-2.2l15.8,1.8a1.1,1.1,0,0,1-.2,2.2Z"/><path class="cls-11" d="M666.2,489.6a1.3,1.3,0,0,1-1-.4,15,15,0,0,1-2.6-13.8,1.3,1.3,0,1,1,2.4.8,12,12,0,0,0,2.1,11.4,1.2,1.2,0,0,1-.1,1.7A1.3,1.3,0,0,1,666.2,489.6Z"/><path class="cls-11" d="M671.9,487.3a.9.9,0,0,1-.8-.4,9.4,9.4,0,0,1-2.6-9.5,1.2,1.2,0,0,1,2.3.7,7.2,7.2,0,0,0,1.9,7,1.3,1.3,0,0,1,.1,1.8A1.5,1.5,0,0,1,671.9,487.3Z"/><path class="cls-11" d="M741.6,410.3h-.1a1.2,1.2,0,0,1-1.1-1.4,16.6,16.6,0,0,0-3.6-12.1,1.4,1.4,0,0,1,.2-1.8,1.2,1.2,0,0,1,1.7.2,19.2,19.2,0,0,1,4.2,14A1.3,1.3,0,0,1,741.6,410.3Z"/><path class="cls-11" d="M748.4,406.4h0a1.2,1.2,0,0,1-1.2-1.3,12.2,12.2,0,0,0-2.2-7.4,1.2,1.2,0,0,1,.3-1.7,1.2,1.2,0,0,1,1.7.3,14.8,14.8,0,0,1,2.7,8.9A1.2,1.2,0,0,1,748.4,406.4Z"/><path class="cls-11" d="M726.6,527.8a1.1,1.1,0,0,1-1-.6,1.2,1.2,0,0,1,.4-1.7,13.3,13.3,0,0,0,5.7-13.6,1.2,1.2,0,0,1,.9-1.5,1.3,1.3,0,0,1,1.5.9,15.8,15.8,0,0,1-6.8,16.3Z"/><path class="cls-11" d="M733.4,529.3a1.1,1.1,0,0,1-1-.6,1.3,1.3,0,0,1,.4-1.7c3.4-1.8,5.2-7.2,4.6-10.8a1.2,1.2,0,0,1,1-1.4,1.2,1.2,0,0,1,1.4,1c.7,4.5-1.3,10.9-5.8,13.4Z"/><path class="cls-11" d="M671,570.9a1.4,1.4,0,0,1-1-.5,21.9,21.9,0,0,1-4-16.4,1.2,1.2,0,0,1,1.4-1.1,1.4,1.4,0,0,1,1,1.5,19.8,19.8,0,0,0,3.6,14.5,1.2,1.2,0,0,1-.2,1.7A1.3,1.3,0,0,1,671,570.9Z"/><path class="cls-11" d="M675.7,567.1a1.2,1.2,0,0,1-.9-.4c-2.2-2.4-3.6-7.3-2.2-10.3a1.2,1.2,0,0,1,1.6-.6,1.3,1.3,0,0,1,.6,1.7c-.8,1.8.1,5.7,1.8,7.5a1.3,1.3,0,0,1,0,1.8A1.6,1.6,0,0,1,675.7,567.1Z"/><path class="cls-11" d="M753.7,573.8a1.1,1.1,0,0,1-.8-.3,1.4,1.4,0,0,1-.1-1.8,11.9,11.9,0,0,0,2.6-11.8,1.3,1.3,0,0,1,.8-1.6,1.4,1.4,0,0,1,1.6.8,14.7,14.7,0,0,1-3.2,14.3A1,1,0,0,1,753.7,573.8Z"/><path class="cls-11" d="M761.5,572.3a1.2,1.2,0,0,1-.8-.2,1.3,1.3,0,0,1-.1-1.8,10.6,10.6,0,0,0,2-9.1,1.4,1.4,0,0,1,.9-1.5,1.3,1.3,0,0,1,1.5,1,13,13,0,0,1-2.5,11.2A1.3,1.3,0,0,1,761.5,572.3Z"/><path class="cls-11" d="M678.3,391.4a1.4,1.4,0,0,1-1.1-.6,14.8,14.8,0,0,1-.5-13.7,1.2,1.2,0,1,1,2.2,1.1,12.2,12.2,0,0,0,.5,11.3,1.3,1.3,0,0,1-.5,1.7Z"/><path class="cls-14" d="M898.9,437s14.8-15.9,29.8-20.5,24.9-1.5,28.8-3.1,7-2.8,9.2-.2-.5,11.8-9.2,13.5S898.9,437,898.9,437Z"/><path class="cls-14" d="M1012,362c0,.4-8.3-25.8-27-37.2s-28.8-3.5-36.1-1.7-15.6-3.9-19.3-1.3-1.1,11.8,10.4,15.7S1010.5,354.9,1012,362Z"/><polygon class="cls-12" points="935 546.8 957.7 546.8 958.3 300 958.7 98.3 958.7 85.8 936 85.8 936 98.3 935.6 299.7 935 546.8"/><polygon class="cls-13" points="935.6 290 936 98.3 958.7 98.3 958.3 290 935.6 290"/><polygon class="cls-8" points="1068.2 109.2 816.1 109.2 814.1 277.1 1068.7 277.1 1068.2 109.2"/><path class="cls-15" d="M748.8,601.2S888,433.5,916.7,424.2c17.4-6.5,50.2-4.9,53.9,1.6,1.3,2.4,0,10.1-5.5,10.8,0,0,4.4,4.1,3.7,8.1s-4.6,6-4.6,6a8.2,8.2,0,0,1,2.6,5.1c1.1,5.6-3.2,7.4-3.2,7.4s6.9,1.2,6.5,10.9c-.3,5.7-4.1,7.9-12.2,7.9v-5.3s-24.9,4.7-36.4.2c-13.8,21-72.7,124.7-72.7,124.7Z"/><path class="cls-16" d="M966.1,438a1.3,1.3,0,0,1-1.2-1,1.3,1.3,0,0,1,1-1.5,4.8,4.8,0,0,0,3.6-3.1,6.7,6.7,0,0,0-.8-5.9c-2.2-2.7-8.7-3.7-12.5-4.3h-.6c-16.1-2.5-29.1-2.3-43.9,7a1.2,1.2,0,0,1-1.7-.4,1.3,1.3,0,0,1,.4-1.7c15.5-9.7,28.9-10,45.6-7.3h.6c4.5.7,11.2,1.7,14,5.2a8.8,8.8,0,0,1,1.2,8.2,7,7,0,0,1-5.4,4.7Z"/><path class="cls-16" d="M937.4,479.2a102,102,0,0,1-18.3-1.6,1.3,1.3,0,0,1,.4-2.5,99.9,99.9,0,0,0,42.5-1.4,1.1,1.1,0,0,1,1.5.9,1.2,1.2,0,0,1-.9,1.5A101.7,101.7,0,0,1,937.4,479.2Z"/><path class="cls-16" d="M962.2,452.5a1.4,1.4,0,0,1-1.3-1,1.3,1.3,0,0,1,1-1.5,7,7,0,0,0,5.4-5.1,7.3,7.3,0,0,0-2.3-7.1,1.2,1.2,0,0,1-.2-1.7,1.3,1.3,0,0,1,1.8-.2,9.7,9.7,0,0,1,3.1,9.6,10,10,0,0,1-7.3,7Z"/><path class="cls-16" d="M962.5,465.4a1.4,1.4,0,0,1-1.1-.7,1.3,1.3,0,0,1,.6-1.7,6,6,0,0,0,3.6-4.9,6.4,6.4,0,0,0-2.4-5.6,1.2,1.2,0,0,1-.3-1.7,1.3,1.3,0,0,1,1.8-.3,8.6,8.6,0,0,1-1.7,14.8Z"/><path class="cls-9" d="M879.3,551.2l-11.8,19.6-18.7,30.8H742.2a776.4,776.4,0,0,1,64.4-75.2c5.9-6,12.1-12.1,18.5-18.1C829.4,511.5,879.3,551.2,879.3,551.2Z"/><path class="cls-17" d="M879.3,551.2l-11.8,19.6-60.9-44.5c5.9-6,12.1-12.1,18.5-18.1C829.4,511.5,879.3,551.2,879.3,551.2Z"/><path class="cls-15" d="M976.7,332.4s-35.8-1.5-39.3-1.1c-5.4.7-10.3,7.6-4.6,14.6-4.7,2-7.2,12.4.4,16.2-5.3,2.6-4.4,12.7.5,13.9-8.4,2.5-7.9,9.8-5.5,13.7a13.8,13.8,0,0,0,7.2,5.2l.2-7.5,9.8.2s35.6,19.6,58.4.7C1022.5,372.8,1006.6,332.7,976.7,332.4Z"/><path class="cls-16" d="M934.1,346.7a1.3,1.3,0,0,1-.8-.3,9.8,9.8,0,0,1-3.2-9.3A9.7,9.7,0,0,1,937,330a1.2,1.2,0,0,1,.6,2.4,7.1,7.1,0,0,0-5.1,5.2,7.2,7.2,0,0,0,2.4,6.9,1.4,1.4,0,0,1,.2,1.8A1.3,1.3,0,0,1,934.1,346.7Z"/><path class="cls-16" d="M934.9,363.7h-.3a10.1,10.1,0,0,1-7.5-8.7,10.3,10.3,0,0,1,5.6-10.2,1.2,1.2,0,0,1,1.6.6,1.3,1.3,0,0,1-.6,1.7,7.6,7.6,0,0,0,1.5,14.2,1.2,1.2,0,0,1,.9,1.5A1.1,1.1,0,0,1,934.9,363.7Z"/><path class="cls-15" d="M936,377.9h-.4a9.8,9.8,0,0,1-7.1-8.9,8.7,8.7,0,0,1,2.6-6.4,4.8,4.8,0,0,1,4-1.2,1.2,1.2,0,0,1-.4,2.4,2.3,2.3,0,0,0-2,.7,6.4,6.4,0,0,0-1.7,4.5,7.5,7.5,0,0,0,5.4,6.6,1.2,1.2,0,0,1,.8,1.5A1.4,1.4,0,0,1,936,377.9Z"/><path class="cls-15" d="M1016.7,372.8c-11.8-39.4-40-40.4-40-40.4l-1.4,56s.3,64.2,0,78.7-.6,133.7-.6,133.7h92C1053.1,497.3,1028.6,412.1,1016.7,372.8Z"/><path class="cls-9" d="M1068.7,601.1H970.1l1.8-77.4.7-28.6,72.8-21.1s2.7,11.5,6.3,28.2C1057.8,531,1066.7,575.2,1068.7,601.1Z"/><path class="cls-17" d="M1051.7,502.2l-79.8,21.5.7-28.6,72.8-21.1S1048.1,485.5,1051.7,502.2Z"/><path class="cls-16" d="M974.4,397.9a49.4,49.4,0,0,1-29.2-9.4H934.8a1.2,1.2,0,1,1,0-2.4H946l.3.2a47.7,47.7,0,0,0,40,7.6,1.4,1.4,0,0,1,1.5.9,1.3,1.3,0,0,1-.9,1.5A48.2,48.2,0,0,1,974.4,397.9Z"/><path class="cls-2" d="M225.2,340.6h24.3s16.4-10.8,13.5-28.4-13.5-35-28-34.7-33.6,14.1-34.3,28.1S206.3,340.3,225.2,340.6Z"/><path class="cls-18" d="M256.6,358.1l.4-20.9-57.9-1.6.5,22.2s-11.7,1.5-13.9,15.8-20,202-21.5,225.6H283.1S270.8,372.6,256.6,358.1Z"/><path class="cls-19" d="M204.3,358a1.2,1.2,0,0,1-1.1-1l-.9-19.7a1.1,1.1,0,0,1,1.1-1.2,1.1,1.1,0,0,1,1.1,1.1l.9,19.7a1,1,0,0,1-1,1.1Z"/><path class="cls-19" d="M209.2,357.7a1.1,1.1,0,0,1-1.1-1.1l-.5-19.7a1,1,0,0,1,1-1.1,1.3,1.3,0,0,1,1.2,1.1l.5,19.7a1.1,1.1,0,0,1-1.1,1.1Z"/><path class="cls-19" d="M215.1,358a1.1,1.1,0,0,1-1.1-1.1V337.8a1.1,1.1,0,1,1,2.2,0v19.1A1.1,1.1,0,0,1,215.1,358Z"/><path class="cls-19" d="M221.5,358.6h0a1.1,1.1,0,0,1-1.1-1.1l.3-19.1a1.1,1.1,0,0,1,1.1-1,1.1,1.1,0,0,1,1.1,1.1l-.3,19.1A1,1,0,0,1,221.5,358.6Z"/><path class="cls-19" d="M227.1,358H227a1.2,1.2,0,0,1-1-1.2l1.5-18.1a1.1,1.1,0,0,1,1.2-1,1,1,0,0,1,1,1.1L228.2,357A1,1,0,0,1,227.1,358Z"/><path class="cls-19" d="M235.2,358.3h-.1a1.1,1.1,0,0,1-1-1.2l1.8-19.3a1.1,1.1,0,0,1,1.2-1,1.1,1.1,0,0,1,1,1.2l-1.8,19.3A1.1,1.1,0,0,1,235.2,358.3Z"/><path class="cls-19" d="M244.4,357.7h-.1a1,1,0,0,1-1-1.1l.2-17.2a1.1,1.1,0,0,1,1.1-1.1h0a1.1,1.1,0,0,1,1.1,1.1l-.2,17.2A1.2,1.2,0,0,1,244.4,357.7Z"/><path class="cls-19" d="M251.1,357.7h0a1.1,1.1,0,0,1-1.1-1.1l.3-16a1.1,1.1,0,0,1,1.2-1,1,1,0,0,1,1,1.1l-.3,15.9A1.1,1.1,0,0,1,251.1,357.7Z"/><path class="cls-19" d="M256.4,358.7h-56a1.1,1.1,0,0,1,0-2.2h56a1.1,1.1,0,0,1,0,2.2Z"/><polygon class="cls-12" points="249.9 461.1 232.2 461.1 231.8 214.3 231.5 12.5 231.5 0 249.1 0 249.1 12.5 249.5 214 249.9 461.1"/><polygon class="cls-13" points="249.5 204.3 249.1 12.5 231.5 12.5 231.8 204.3 249.5 204.3"/><path class="cls-1" d="M231.1,273.2c-.4-3.6,7.1-5.5,12.6-6.1s22.8-5.7,27.5-1,3.9,12-.6,14c3.9,6.4,3.7,12.5-2.2,13.9,2.4,5.1,2.2,14.7-4.7,15.1,2.4,8.7-1.8,12.9-6.9,13.6-10,1.4-21-1.6-23.8-4.7s-1.1-8.7,4.8-10c0,0-6.1-.2-6.1-6.5,0-4.2,5.5-5.9,5.5-5.9s-6.1-2-5.1-9.5C229.3,281.4,231.1,273.2,231.1,273.2Z"/><path class="cls-1" d="M212.5,332.4a16,16,0,0,1-4-2.8c-6.8-6.5-8.5-18.2-7.7-27.2,1.8-19.2,12.5-24.4,17.4-26.8s28.7-5.2,32.4-2.5,2.4,10.1-3.7,13.5-16.5,1.5-21,4.5-5.9,6.2-5.9,6.2,7.4,3.3,9.2,8.8c3,8.9,4.2,25.8-8.4,27.8A14.2,14.2,0,0,1,212.5,332.4Z"/><polygon class="cls-8" points="119.6 22.9 358.1 22.9 360 190.8 119.1 190.8 119.6 22.9"/><path class="cls-19" d="M240.8,515.2a1.3,1.3,0,0,1-.8-.3c-7.7-7.4-15.8-15-21.4-24.7a124,124,0,0,1-9.5-19c-7-17.9-9.9-37-12.1-53.5a1.2,1.2,0,0,1,1-1.3,1.2,1.2,0,0,1,1.2,1c2.1,16.4,5,35.4,11.9,53a128.9,128.9,0,0,0,9.3,18.7c5.5,9.4,13.5,16.9,21.1,24.2a1,1,0,0,1,.1,1.5A.9.9,0,0,1,240.8,515.2Z"/><path class="cls-19" d="M229.9,510.4a.8.8,0,0,1-.7-.2,104.7,104.7,0,0,1-32.1-43.7,1.1,1.1,0,0,1,.7-1.4,1.1,1.1,0,0,1,1.4.6,102.5,102.5,0,0,0,31.3,42.8,1,1,0,0,1,.2,1.5A.9.9,0,0,1,229.9,510.4Z"/><path class="cls-19" d="M190,585.5a1.1,1.1,0,0,1-1.1-1.1,1,1,0,0,1,1-1.1,108.7,108.7,0,0,0,69.9-31.9,1.1,1.1,0,0,1,1.6,1.6A110.6,110.6,0,0,1,190,585.4Z"/><path class="cls-19" d="M228.6,586.4a1.1,1.1,0,0,1-1-.7,1.1,1.1,0,0,1,.6-1.4,54.5,54.5,0,0,0,23.9-17.1,1.1,1.1,0,0,1,1.5-.2,1.2,1.2,0,0,1,.2,1.6A56.3,56.3,0,0,1,229,586.3Z"/><path class="cls-3" d="M255.2,310.6a109.8,109.8,0,0,1-17.5-1.4,1,1,0,0,1-.9-1.2,1,1,0,0,1,1.2-.9,119.4,119.4,0,0,0,24.7,1.1,1.1,1.1,0,0,1,1.2,1,1,1,0,0,1-1,1.1C260.4,310.5,257.8,310.6,255.2,310.6Z"/><path class="cls-3" d="M245.5,296.6l-7.4-.2a1,1,0,0,1-1-1.2,1,1,0,0,1,1.1-1,153,153,0,0,0,27.9-1.2,1,1,0,0,1,1.2.9,1.1,1.1,0,0,1-.9,1.3A161.8,161.8,0,0,1,245.5,296.6Z"/><path class="cls-3" d="M218.2,302.8h-.3a1.1,1.1,0,0,1-.7-1.4,18.3,18.3,0,0,1,9.7-10.9,31.4,31.4,0,0,1,9-2.3h.6a34.9,34.9,0,0,0,7.9-1.8,11.6,11.6,0,0,0,6.3-5,6.5,6.5,0,0,0-.3-7.2,1.1,1.1,0,0,1,.2-1.6,1.1,1.1,0,0,1,1.5.2c2.1,2.5,2.3,6.5.6,9.7a14.9,14.9,0,0,1-7.5,6,40.6,40.6,0,0,1-8.4,1.8h-.6a36.1,36.1,0,0,0-8.3,2.1,16.6,16.6,0,0,0-8.7,9.7A1,1,0,0,1,218.2,302.8Z"/><path class="cls-3" d="M251.7,283a1.1,1.1,0,0,1-.2-2.2l15.8-1.8a1.1,1.1,0,1,1,.2,2.2L251.8,283Z"/><path class="cls-20" d="M614.1,96.2l-2.6-30.8-6.7,31.7H594.2l-6.9-32.5-1.5,32.7-12.9-.2,2-44.4h20.6l4,17.4,4.3-17,19.1-.4,4.7,43.3Z"/><path class="cls-20" d="M653.3,50.2a22.9,22.9,0,0,1,9.6,2,22.2,22.2,0,0,1,7.4,5.3A24.4,24.4,0,0,1,675,65a22.9,22.9,0,0,1,1.6,8.5,24.6,24.6,0,0,1-1.2,7.6,23.1,23.1,0,0,1-3.9,7l-3.8,3.7a22.2,22.2,0,0,1-6.5,3.3,23.7,23.7,0,0,1-7,1A23.4,23.4,0,0,1,640,91.3L635.7,87a23.4,23.4,0,0,1-4.8-14.2,23.2,23.2,0,0,1,3.6-12.4l7.1-7.1a23.5,23.5,0,0,1,5.7-2.3A20.6,20.6,0,0,1,653.3,50.2Zm-8.4,23.5a7.8,7.8,0,0,0,.7,3.5,8,8,0,0,0,2,2.8,9.5,9.5,0,0,0,2.7,1.7,7.1,7.1,0,0,0,3.2.7,9,9,0,0,0,4.4-1.3l3-3a9,9,0,0,0,1.3-4.4,7.3,7.3,0,0,0-.8-3.3,9,9,0,0,0-1.8-2.8,13.4,13.4,0,0,0-2.8-1.8,7.8,7.8,0,0,0-3.3-.7,8,8,0,0,0-3.4.7,10.1,10.1,0,0,0-2.7,1.9,8.8,8.8,0,0,0-1.9,2.7A9.6,9.6,0,0,0,644.9,73.7Z"/><path class="cls-20" d="M682.9,53.2h14.8V97.5H682.9Z"/><path class="cls-20" d="M746.4,53.1,745.8,96l-17.8.4L716.7,71.2V96.7h-11V52.5h13.9L733,82.3v-29Z"/><path class="cls-20" d="M776.3,72.1a12.9,12.9,0,0,1,4.1,3.1,13.4,13.4,0,0,1,2.2,3.7l.6,2.1a8.5,8.5,0,0,1,.4,2.3,16.3,16.3,0,0,1-.6,4.5,15.7,15.7,0,0,1-1.4,3.8,15.4,15.4,0,0,1-2.5,3.2,18,18,0,0,1-3.5,2.4,16.8,16.8,0,0,1-3.9,1.6,14.8,14.8,0,0,1-4.1.5,12.7,12.7,0,0,1-2.8-.2l-2.8-.7-2.5-1a7.2,7.2,0,0,1-2.1-1.2,13.8,13.8,0,0,1-4.9-6l8.6-5.5.5.8,1.1,1.2a9.1,9.1,0,0,0,1.6,1.1,5.4,5.4,0,0,0,2.2.4,3.4,3.4,0,0,0,2.6-1.2,3.7,3.7,0,0,0,1-2.6c0-1.9-1.5-3.3-4.5-4.3a18.9,18.9,0,0,1-4.3-2,23.3,23.3,0,0,1-3.5-2.7l-1.6-1.8a12.7,12.7,0,0,1-1.3-1.9,7.9,7.9,0,0,1-.9-2.3,15.1,15.1,0,0,1-.3-3.2c0-1,.1-2.1.2-3.2a13.5,13.5,0,0,1,1.1-3.2,14,14,0,0,1,2-3.2,14.5,14.5,0,0,1,3.1-2.9,19.3,19.3,0,0,1,4.3-2.2,17.2,17.2,0,0,1,6-.9,13.8,13.8,0,0,1,5.9,1.1,15.4,15.4,0,0,1,3.9,2.3l2.4,2.6-7.2,6.8-.7-.7-1.2-.6-1.4-.5-1.3-.2a4.1,4.1,0,0,0-3,1.1,3.7,3.7,0,0,0-1,2.4,4,4,0,0,0,2.2,3.5l1.3.7a6.1,6.1,0,0,1,1.7.7l2,1.1Z"/><path class="cls-20" d="M577.4,134.7a23.2,23.2,0,0,1-3.6,12.4l-7.1,7a20.3,20.3,0,0,1-5.7,2.4,24.7,24.7,0,0,1-6,.8H541l1.2-45.2h12.6a22,22,0,0,1,8.8,1.8,23.3,23.3,0,0,1,7.2,4.8,22.7,22.7,0,0,1,4.8,7.2A21.6,21.6,0,0,1,577.4,134.7Zm-22.5,8.2a8.8,8.8,0,0,0,3.3-.6,15.1,15.1,0,0,0,2.6-1.8,7.8,7.8,0,0,0,1.7-2.6,7.7,7.7,0,0,0,0-6.4,7.8,7.8,0,0,0-1.7-2.6,12.7,12.7,0,0,0-2.7-1.8,8.8,8.8,0,0,0-3.2-.7Z"/><path class="cls-20" d="M583.3,157.4l-.2-43.8,26.3-.5.2,10.6-12.4.2v6.2h13v11.4h-13v5.6l12.9-.4.2,9.9Z"/><path class="cls-20" d="M660,133.4a17,17,0,0,1,3.3,4.2,12.1,12.1,0,0,1,1.2,5.3,13,13,0,0,1-1,5.2,14.6,14.6,0,0,1-2.9,4.4,13.7,13.7,0,0,1-4.2,2.9,14,14,0,0,1-5.3,1.1l-17.2-.2,1.2-44,16,.2a13.5,13.5,0,0,1,5,1.1,12.5,12.5,0,0,1,4.1,2.6,10.5,10.5,0,0,1,2.7,3.9,12,12,0,0,1,1,4.7,13.4,13.4,0,0,1-1,4.9A8.9,8.9,0,0,1,660,133.4Z"/><path class="cls-20" d="M706.3,155.5l-12.7,1.9-6.1-12.3-1.8.4h-1.9v11H670.7V111.3h13.1a16.6,16.6,0,0,1,6.6,1.4,16.9,16.9,0,0,1,9.1,9.1,16.7,16.7,0,0,1,.5,12.1,19.2,19.2,0,0,1-2.5,4.7Z"/><path class="cls-20" d="M730.4,159.5a21.8,21.8,0,0,1-6.9-1.2,23.7,23.7,0,0,1-6.6-3.6l-4.3-4.3a19.8,19.8,0,0,1-3.4-6.6,25.8,25.8,0,0,1-1.1-7.3V113h14.5v23.5a9.7,9.7,0,0,0,2,6.3,6.8,6.8,0,0,0,5.4,2.3,7,7,0,0,0,5.4-2.2,9,9,0,0,0,2.1-6.4V114.3l15-.6v22.8a24.4,24.4,0,0,1-.8,6.6,21.2,21.2,0,0,1-2.5,6.1l-6.9,7.2a32.3,32.3,0,0,1-5.8,2.4A24.8,24.8,0,0,1,730.4,159.5Z"/><path class="cls-20" d="M760.6,113.2h14.9v44.3H760.6Z"/><path class="cls-20" d="M814.3,126.9h-9.5v29.9H792.1V126.9H781.2V112.1h33.1Z"/><path class="cls-20" d="M150.1,104.1l-2.6-1.5-2.7-1.5-.6-.4-.5-.6v-.2c0-.1.1-.2.2-.3l.4-1.2c1.9-4.4,3.6-8.9,5.1-13.3s3.1-9,4.5-13.5l.7-2c.2-.8.5-1.6.8-2.5l.9-2.6a13,13,0,0,0,.6-1.9,1.9,1.9,0,0,1,1-1.3,5.8,5.8,0,0,1,1.8-.4h6.3a9.3,9.3,0,0,1,4.2.9,9.6,9.6,0,0,1,3.2,2.4,9,9,0,0,1,2,3.4,10.6,10.6,0,0,1,.7,3.8,16.9,16.9,0,0,1-.1,2.3,11.7,11.7,0,0,1-.5,2,12.4,12.4,0,0,1-1,2,8,8,0,0,1-1.5,1.7,14,14,0,0,0,4.6-2.9,39.6,39.6,0,0,0,4.6-5.2l.5-.5.5-.4,1.2.3,1,.5a2,2,0,0,1,.8.8,5,5,0,0,1,.2,1.2,6.9,6.9,0,0,1-1.3,3.5,34.3,34.3,0,0,1-4.4,4.8,20.1,20.1,0,0,1-4.7,3.3,10.4,10.4,0,0,1-4.7,1.3,7.8,7.8,0,0,1-2.2-.4,6.9,6.9,0,0,1-1.9-1l-2.3.8a11,11,0,0,1-2.5.2,10.1,10.1,0,0,1-2.5-.2l-2.4-.5c-.8,3-1.8,6.1-2.9,9.1s-2.1,5.9-3.2,8.7a.6.6,0,0,1-.6.3ZM167.7,75a3.9,3.9,0,0,0,.5-1.3,6.2,6.2,0,0,0,.1-1.3,8.6,8.6,0,0,0-.1-1.6l-.6-1.3a2.8,2.8,0,0,0-1-.9,3.3,3.3,0,0,0-1.5-.3h-2.2a23.1,23.1,0,0,1-1,2.8l-.9,2.4-.9,2.4c-.3.8-.5,1.6-.8,2.6a8.5,8.5,0,0,0,2.2.4,4.7,4.7,0,0,0,1.7-.3,5.1,5.1,0,0,0,1.7-.7,4.8,4.8,0,0,0,1.6-1.3A5.7,5.7,0,0,0,167.7,75Z"/><path class="cls-20" d="M193.5,87.2a5.4,5.4,0,0,1-1.9-.4l-2.5-1c-.9-.5-1.8-.9-2.7-1.5L184,82.8l-1.8-1.5c-.5-.4-.7-.7-.7-1a15.5,15.5,0,0,1-.1-2.2,27,27,0,0,1,.7-6.3,41.6,41.6,0,0,1,1.7-6.3c.8-2.1,1.6-4.2,2.5-6.2s1.9-3.9,2.8-5.8l2.1-4.1,1-1.8,1.4-2c.5-.7,1.1-1.3,1.7-2l2-1.7a10.1,10.1,0,0,1,2.3-1.2,6.4,6.4,0,0,1,2.4-.4,3.3,3.3,0,0,1,1.6.5,5.2,5.2,0,0,1,1.7,1.3,12.1,12.1,0,0,1,1.6,1.6l1.4,1.8.9,1.4a2.9,2.9,0,0,1,.3.9v.4a20.2,20.2,0,0,1-.8,5.4,29.6,29.6,0,0,1-2.4,5.5,44.2,44.2,0,0,1-3.4,5.4c-1.3,1.7-2.6,3.3-4,4.8a41.2,41.2,0,0,1-4.3,4.1,35.5,35.5,0,0,1-4.1,3.2,5.4,5.4,0,0,1,.1.8,7.6,7.6,0,0,0,.4,1.1,10.4,10.4,0,0,0,.4,1,.8.8,0,0,0,.7.4l.9-.3,1.2-.8,2.5-1.6,2.3-1.8,2.1-1.8,1.7-1.6a5,5,0,0,1,1.3-1,2.3,2.3,0,0,1,1.1-.3,2,2,0,0,1,1.4.4,2.1,2.1,0,0,1,.6,1.6,4.9,4.9,0,0,1-.7,2.3,34.9,34.9,0,0,1-1.8,3.1,36.5,36.5,0,0,1-2.6,3.2q-1.5,1.7-3,3l-3,2.1A5.9,5.9,0,0,1,193.5,87.2Zm9.8-38.6a34.4,34.4,0,0,0-2.8,3.6c-.8,1.3-1.7,2.7-2.5,4.2a41.2,41.2,0,0,0-2.5,4.7l-2.6,5.6h.1a18.4,18.4,0,0,0,2.5-1.9,19.4,19.4,0,0,0,2.3-2.6l2-3c.6-1.1,1.1-2,1.5-2.9l.8-2,.8-2,.6-1.8.3-1.8h-.5Z"/><path class="cls-20" d="M234,70.8l1.8,1.5,1,1,.4.5a.2.2,0,0,1,.2.2.4.4,0,0,1-.1.3l-.4.6-.7,1-1.1,1.5-1.2,1.9-1.3,1.8-1.2,1.6-.8,1.1-.5.4a5.2,5.2,0,0,1-1.1,1,7.1,7.1,0,0,1-1.4,1l-1.5.7a3.4,3.4,0,0,1-1.4.2l-2.5-.2A8.5,8.5,0,0,1,220,86a8,8,0,0,1-1.7-1.5,7.6,7.6,0,0,1-1.2-1.9l-.9,1-1.2.9-1.4.6a4,4,0,0,1-1.5.3l-1.6-.2-1.7-.5-1.5-.5-1.4-.5a9.1,9.1,0,0,1-3.6-2.4,4.6,4.6,0,0,1-1.3-3.5,7.4,7.4,0,0,1,.5-2.4c.3-.9.6-1.8,1-2.7l1.2-2.5a8,8,0,0,0,.8-2.1,4.1,4.1,0,0,1,.5-.9l.6-.7.8-.3.6-.2,1.1.7,1.2.8,1.1,1,1.2.9.5.5.3.4a3.5,3.5,0,0,1-.3,1.2,10.7,10.7,0,0,0-.7,1.5l-.6,1.6a5.6,5.6,0,0,0-.4,1.5c0,.3-.1.5-.1.7v1.3c0,.3.1.5.2.5a7.9,7.9,0,0,0,1.2-1.3,15.7,15.7,0,0,0,1.2-1.9,23.9,23.9,0,0,1,1.3-2.1l1.2-2.2,1.1-1.9a4.6,4.6,0,0,1,.9-1.2l.6-.4h.8a2.5,2.5,0,0,1,1.4.4,4.7,4.7,0,0,1,1,1,9.3,9.3,0,0,1,.5,1l.6.8.6.7.9.8.6.7a2.2,2.2,0,0,1,.1.8,6.9,6.9,0,0,1-.2,1.3,8.3,8.3,0,0,1-.4,1.5,8.3,8.3,0,0,1-.4,1.5,7.6,7.6,0,0,0-.1,1.4,1.1,1.1,0,0,0,.3.9l1.4-1a15.7,15.7,0,0,0,1.9-1.8l2.2-2.1c.8-.8,1.4-1.5,2.1-2.1a13.5,13.5,0,0,1,1.7-1.7A2.8,2.8,0,0,1,234,70.8Z"/><path class="cls-20" d="M230,74.3l2.8-2.6a22.3,22.3,0,0,0,2.6-2.7,26.6,26.6,0,0,0,2.6-3.1,41.7,41.7,0,0,0,2.6-3.8c0-.2.1-.3.1-.5v-1a6.8,6.8,0,0,0,.2-1.4c0-.5.1-1,.1-1.4s.1-.5.1-.9a4.4,4.4,0,0,1,.2-1,3,3,0,0,1,.4-.8,1.2,1.2,0,0,1,.8-.4l1.3.4,1.8,1,2,1.4,1.8,1.5,1.5,1.5a3.8,3.8,0,0,1,.7,1.1.8.8,0,0,1,.1.4v.3a4.1,4.1,0,0,1-.1,1.1c0,.4-.1.8-.1,1.2a3.5,3.5,0,0,1,.1.6,12.4,12.4,0,0,0,.6,1.8c.3.7.6,1.6.9,2.5s.5,1.8.8,2.8a15,15,0,0,1,.3,2.9l.9-1a9.1,9.1,0,0,1,1.7-1.7c.7-.5,1.4-1.2,2.2-1.9s.4.2.7.4l1,.9.8,1a1.2,1.2,0,0,1,.4.8c-1.2,1.6-2.5,3.2-3.8,4.7a32.4,32.4,0,0,1-4.3,4,23.4,23.4,0,0,1-4.9,2.7,15.7,15.7,0,0,1-5.8,1,6.5,6.5,0,0,1-2.6-.6,18.2,18.2,0,0,1-2.7-1.5,22.5,22.5,0,0,1-2.4-2.1,23.5,23.5,0,0,1-1.9-2.5l-1,1a2.9,2.9,0,0,1-1.8.3,3.9,3.9,0,0,1-1.4-.8,3.5,3.5,0,0,1-1-1.1,1.9,1.9,0,0,1-.4-1.1,3,3,0,0,1,.7-1.9Zm16.4-1.5a8.9,8.9,0,0,0-.3-2.2,10.5,10.5,0,0,0-.5-1.9,12,12,0,0,1-1.5,2.4l-2,2.1L240,75l-2.1,1.7a3.3,3.3,0,0,0,1.4,1.2,4.7,4.7,0,0,0,1.6.5,5.1,5.1,0,0,0,2.2-.5,5.7,5.7,0,0,0,1.8-1.2A4.5,4.5,0,0,0,246,75a4.1,4.1,0,0,0,.4-1.9Z"/><path class="cls-20" d="M308.8,73.9c.1.1.1.3,0,.7a4.1,4.1,0,0,1-.6,1.1l-.6,1.1-.5.8a40.2,40.2,0,0,1-3.9,4.2,27,27,0,0,1-3.8,2.7,15,15,0,0,1-3.2,1.5,8,8,0,0,1-2,.5l-1.3-.3-1.4-.7a7.5,7.5,0,0,1-1.5-.9l-1-.9-1.5,1a7.1,7.1,0,0,1-1.4,1l-1.4.7-1.5.2-1.1-.2-1.6-.6-1.9-.9-1.9-1-1.5-1c-.4-.4-.8-.7-.9-1a3.4,3.4,0,0,1-.9-1.8,5.8,5.8,0,0,1-.3-1.9,9.6,9.6,0,0,1,.6-3.3,24.1,24.1,0,0,1,1.5-3.3,27.3,27.3,0,0,1,2.1-3l2.4-2.5a13.6,13.6,0,0,1,3.5-2.4,8,8,0,0,1,3.6-.9,8.6,8.6,0,0,1,2.7.5,9.4,9.4,0,0,1,2.6,1.4c.3-.9.5-1.8.8-2.7s.5-1.9.8-2.8.5-1.8.7-2.6l.7-2.3a11.5,11.5,0,0,1,.6-2.1,15.5,15.5,0,0,1,.7-2.3,17.2,17.2,0,0,1,.9-1.9,2.2,2.2,0,0,1,1-1.1l1.8,1.3,1.9,1.6c.6.5,1.1,1.1,1.6,1.6a5.1,5.1,0,0,1,.8,1.3,30.9,30.9,0,0,1-1,3.4c-.4,1.3-.9,2.6-1.4,4.1s-1.1,3-1.7,4.5-1.1,3.1-1.6,4.7-1.1,3.1-1.6,4.7-1,3.2-1.4,4.7a5.6,5.6,0,0,0,1.7-.7l2-1.6,2.2-2.1,2-2,.7-.7.4-.3ZM290.2,70l-.4-.3h-.6L287.1,71l-2.2,2.2a13.8,13.8,0,0,0-1.7,2.5,5.5,5.5,0,0,0-.7,2.4c0,.3.1.5.1.7a1.6,1.6,0,0,0,.3.6,6.9,6.9,0,0,0,2.2-1.2,15,15,0,0,0,2.5-1.9,12.4,12.4,0,0,0,1.9-2.6,5.1,5.1,0,0,0,.8-2.9A2.2,2.2,0,0,0,290.2,70Z"/><path class="cls-20" d="M316.9,86.8l-1.5-.3-2.2-.7-2.4-.9-1.7-.8a11.4,11.4,0,0,1-2.3-1.5,7.7,7.7,0,0,1-1.8-1.8,9.4,9.4,0,0,1-1.2-2.2,7.7,7.7,0,0,1-.4-2.7,12.6,12.6,0,0,1,.5-3.3,21.7,21.7,0,0,1,1.5-3.5,17.8,17.8,0,0,1,2.3-3.1,17.5,17.5,0,0,1,2.9-2.6,12.4,12.4,0,0,1,3.4-1.8,8.4,8.4,0,0,1,3.5-.7,8,8,0,0,1,5,1.4,6.1,6.1,0,0,1,2.1,4.2,4.6,4.6,0,0,1-.6,2.3,10.7,10.7,0,0,1-1.5,2.2,12.9,12.9,0,0,1-2.1,1.9l-2.5,1.6-2.6,1.2a11.3,11.3,0,0,0-2.2,1.1c-.2,0-.3.2-.4.4a2.9,2.9,0,0,0-.2.9c0,.4.1.7.1.9a3,3,0,0,0,.4.8l.7.5h1.2a6.5,6.5,0,0,0,2.9-.7l3-1.8a31.5,31.5,0,0,0,2.9-2.2l2.3-2,1-1,1-1.1a5.7,5.7,0,0,1,1.3-.8,2.9,2.9,0,0,1,1.6-.4,1.7,1.7,0,0,1,1.3.4,2,2,0,0,1,.4,1.4,12.3,12.3,0,0,1-.2,1.9,6,6,0,0,1-.8,1.9,22.5,22.5,0,0,1-1.7,2.1,27.2,27.2,0,0,1-2.4,2.4l-2.8,2.4-2.9,2-2.7,1.4A7.4,7.4,0,0,1,316.9,86.8Zm.6-21-1.2.5-1.1,1-.8,1.2-.5,1.1a2.9,2.9,0,0,0,1.3-.5,5.7,5.7,0,0,0,1.3-.8l1.1-1,.8-1h-.2l-.3-.2Z"/><path class="cls-20" d="M148.6,136.7a34.5,34.5,0,0,0,2.8-2.6,34.4,34.4,0,0,0,2.7-2.7c.9-.9,1.7-2,2.6-3.1a41.8,41.8,0,0,0,2.5-3.8.9.9,0,0,0,.1-.5v-1a3.5,3.5,0,0,0,.3-1.4v-1.4c0-.2.1-.5.1-.9a4.4,4.4,0,0,1,.2-1,3.5,3.5,0,0,1,.5-.8,1,1,0,0,1,.7-.4l1.3.4,1.8,1,2,1.4,1.9,1.5,1.4,1.5a4.8,4.8,0,0,1,.8,1.1c0,.2.1.3.1.4v.3c0,.4-.1.7-.1,1.1a4.9,4.9,0,0,0-.1,1.2,1.8,1.8,0,0,0,.1.6c.1.5.3,1,.5,1.8s.6,1.6.9,2.5a22.9,22.9,0,0,1,.8,2.8,15,15,0,0,1,.3,2.9l.9-1,1.7-1.7,2.3-1.9.6.4,1,.9.8,1a1.2,1.2,0,0,1,.4.8c-1.2,1.6-2.5,3.2-3.8,4.7a27.2,27.2,0,0,1-4.3,4,23.4,23.4,0,0,1-4.9,2.7,15.7,15.7,0,0,1-5.8,1,6.5,6.5,0,0,1-2.6-.6,13.5,13.5,0,0,1-2.6-1.5,12.1,12.1,0,0,1-2.4-2.1,11,11,0,0,1-1.9-2.5l-1.1,1a2.7,2.7,0,0,1-1.7.3,3.6,3.6,0,0,1-1.5-.8,5.2,5.2,0,0,1-1-1.1,1.9,1.9,0,0,1-.4-1.1,3.1,3.1,0,0,1,.8-1.9Zm16.5-1.5-.3-2.2-.6-1.9a12,12,0,0,1-1.5,2.4l-1.9,2.1-2.2,1.8-2.1,1.7a3.3,3.3,0,0,0,1.4,1.2,4.5,4.5,0,0,0,1.7.5,5.4,5.4,0,0,0,2.2-.5,6.1,6.1,0,0,0,2.9-2.9,5.8,5.8,0,0,0,.4-1.9Z"/><path class="cls-20" d="M212.2,133.8a3.9,3.9,0,0,1,1.4,1.5,5.5,5.5,0,0,1,.3,1.7,5.3,5.3,0,0,1-.1,1.3,2.6,2.6,0,0,1-.3,1.1,16,16,0,0,1-1.9,2.9L209,145l-3,2.3a27.9,27.9,0,0,1-3.3,1.9l-3.3,1.2a17.6,17.6,0,0,1-3.1.4l-2.2-.2-2.1-.7a6.1,6.1,0,0,1-1.5-1.2,2,2,0,0,1-.6-1.5,5,5,0,0,1,.2-1.2,11.8,11.8,0,0,1-3.3,1.2,13.2,13.2,0,0,1-3.4.4,12.5,12.5,0,0,1-3.5-.4,4.7,4.7,0,0,1-2.1-1.2,10.4,10.4,0,0,1-1.9-3.6,12.1,12.1,0,0,1-.6-3.8,8.6,8.6,0,0,1,.5-3.2,11.1,11.1,0,0,1,1.4-2.9,12.1,12.1,0,0,1,2.1-2.4,15.7,15.7,0,0,1,2.6-1.9,15.9,15.9,0,0,1,2.7-1.2,9.5,9.5,0,0,1,2.8-.4,11.6,11.6,0,0,1,4,.7,18.6,18.6,0,0,1,4.2,2.5l.8-.5.9-.2h.6l.6.3h.8l.7.3,1.9,1.8a2.9,2.9,0,0,1,.6,1.5,4.1,4.1,0,0,1-.4,1.7l-1,1.8a26.1,26.1,0,0,0-1.9,3.7,14.2,14.2,0,0,0-1.1,3.5l.5.2a2.9,2.9,0,0,0,1.5-.5l2.2-1.4c.8-.6,1.7-1.2,2.6-2l2.7-2.2,2.6-2.2Zm-21.9-1.7-1.2.6-1.2,1.2a10.9,10.9,0,0,0-1.3,1.7,17.4,17.4,0,0,0-1.1,1.8,7.1,7.1,0,0,0-.8,1.8,5,5,0,0,0-.3,1.6,1,1,0,0,0,.3.8h.8a4.5,4.5,0,0,0,2.5-.7,14.3,14.3,0,0,0,2.3-2,13.1,13.1,0,0,0,1.9-2.7,26,26,0,0,0,1.5-2.8c0-.2-.1-.3-.3-.5l-.7-.4-1-.4h-1.4Z"/><path class="cls-20" d="M211.5,136.7l-.4-.5a1.7,1.7,0,0,1-.2-.5,7.8,7.8,0,0,1,.8-1.6l1.6-1.8,1.9-1.6a4.6,4.6,0,0,1,2.2-.6l1.1.2.9.7a3,3,0,0,1,.8.8l.7.9a6.4,6.4,0,0,1,1.4-1.5l1.7-1.4,1.7-1a3.4,3.4,0,0,1,1.6-.4,5.7,5.7,0,0,1,2.8.8,7.9,7.9,0,0,1,2.2,1.9,6.5,6.5,0,0,1,1.5,2.3,6,6,0,0,1,.6,2.4c0,.5-.1,1-.1,1.5l-.3,1.6-.2,1.6a8.1,8.1,0,0,0-.1,1.6v1.2a.5.5,0,0,0,.3.5,4,4,0,0,0,1.2-.7,9.6,9.6,0,0,0,1.7-1.4l1.8-1.8a18,18,0,0,0,1.9-2l1.8-2,1.6-1.7.7-.8.3.3.5.4.8.8,1.2,1.3a2.1,2.1,0,0,1,.6.8l-.3.5-.4.5-1.4,2.3-2,2.6a30.7,30.7,0,0,1-2.5,2.6,21.7,21.7,0,0,1-2.9,2.4,12.6,12.6,0,0,1-3.3,1.6,9.4,9.4,0,0,1-3.7.7,6,6,0,0,1-2.7-.7,5.5,5.5,0,0,1-1.6-1.8,6.3,6.3,0,0,1-1-2.5c-.1-.9-.3-1.9-.4-2.9V141c0-.4-.1-.8-.1-1.1V139c-.1-.3-.1-.4-.2-.5a4.1,4.1,0,0,0-1.1,1.6,14.7,14.7,0,0,0-1,2.2c-.3.8-.7,1.6-1,2.5s-.7,1.6-1.1,2.3a7,7,0,0,1-1.3,1.6,2.1,2.1,0,0,1-1.5.7l-1.7-.2-1.7-.5-1.3-.6c-.4-.3-.6-.6-.6-.8s.2-.5.3-1l.6-1.5.6-1.5a7.4,7.4,0,0,0,.2-1.2h0a15.5,15.5,0,0,0,.4-1.5,7.7,7.7,0,0,0,.2-1.5v-.8a4.3,4.3,0,0,0-.1-.5,5.2,5.2,0,0,1-1.1.7l-1.1.3h-.1Z"/><path class="cls-20" d="M270.3,124.2l-.5.4-.6.5-1.7.8-2.5.8-2.6.7-2,.5-1.9.2a2.9,2.9,0,0,0-1.1.3,1.3,1.3,0,0,0-.7.6c-.2.4-.4.9-.8,1.6l-.8,1.9a23.1,23.1,0,0,0-1,2.8,17.1,17.1,0,0,0-.9,3,15.7,15.7,0,0,0-.4,2.8,4.9,4.9,0,0,0,.4,1.9,4.5,4.5,0,0,0,2-.6l2.4-1.2,2.6-1.8a25.2,25.2,0,0,0,2.5-2.1,24,24,0,0,0,2.3-2.1,14,14,0,0,0,1.7-2l2.1,1.3a7.9,7.9,0,0,1,1.7,1.4,16.6,16.6,0,0,1-1.4,2.5,24.9,24.9,0,0,1-1.9,3l-2.4,2.9a30.8,30.8,0,0,1-2.7,2.5,17.9,17.9,0,0,1-2.8,2,7.6,7.6,0,0,1-2.8.9h-.8l-.9-.2-2.3-.6-2.5-.7-2.5-.9a12.6,12.6,0,0,1-2.3-1.3,8.1,8.1,0,0,1-1.6-1.6,3.6,3.6,0,0,1-.6-2,2.2,2.2,0,0,1-.1-.8v-.8a21.3,21.3,0,0,1,.7-5.5,20.1,20.1,0,0,1,2.1-5.4l-2.3.3-1.3.3h-2.9l-1.3-.2a1.9,1.9,0,0,1-.9-.3l-.5-.4a.8.8,0,0,1-.1-.4,1.4,1.4,0,0,1,.6-1l1.6-1,2.1-.8,2.2-.6,2.2-.5,1.4-.3,1-.4.7-.6a3.5,3.5,0,0,0,.6-.9,10.5,10.5,0,0,0,.8-1.3,11.7,11.7,0,0,0,1.2-2l1.6-2.4,1.8-2.1a5.7,5.7,0,0,1,2.1-1.2h1.3l1.4.2,1.7.5a6.9,6.9,0,0,1,1.5.7,3.5,3.5,0,0,1,1.1.9l-.7,1.1-1.2,1.6-1.5,2.3a9.2,9.2,0,0,0-1.3,2.4l2.4-.4,2.7-.4,2.8-.4,2.5-.3h.2c.8,0,1.3.1,1.5.4a1.4,1.4,0,0,1-.2.7A2.5,2.5,0,0,1,270.3,124.2Z"/><path class="cls-20" d="M278.6,149.2l-1.5-.3-2.2-.7-2.3-.9-1.8-.8a11.4,11.4,0,0,1-2.3-1.5,7.7,7.7,0,0,1-1.8-1.8,9.4,9.4,0,0,1-1.2-2.2,11,11,0,0,1-.4-2.7,9.6,9.6,0,0,1,.6-3.3,11.9,11.9,0,0,1,1.5-3.5,13.9,13.9,0,0,1,2.3-3.1,12,12,0,0,1,2.9-2.6,10.6,10.6,0,0,1,3.3-1.8,8.7,8.7,0,0,1,3.5-.7,8.4,8.4,0,0,1,5.1,1.4,5.6,5.6,0,0,1,2,4.2,5.9,5.9,0,0,1-.5,2.3,8.2,8.2,0,0,1-1.6,2.2,12.9,12.9,0,0,1-2.1,1.9l-2.5,1.6-2.5,1.2a12.3,12.3,0,0,0-2.3,1.1c-.2,0-.3.2-.4.4a2.8,2.8,0,0,0-.1.9,2.2,2.2,0,0,0,.1.9c0,.3.2.5.3.8l.7.4a2.2,2.2,0,0,0,1.2.2,6.5,6.5,0,0,0,2.9-.7l3-1.8a31.5,31.5,0,0,0,2.9-2.2l2.3-2a4.7,4.7,0,0,0,1-1,5.7,5.7,0,0,1,1.1-1.1l1.2-.8a3.1,3.1,0,0,1,1.7-.4,1.6,1.6,0,0,1,1.2.4,2,2,0,0,1,.4,1.4,6.2,6.2,0,0,1-.2,1.9,6,6,0,0,1-.8,1.9,19.6,19.6,0,0,1-1.6,2.1l-2.5,2.4-2.8,2.4-2.9,2-2.7,1.4A7.4,7.4,0,0,1,278.6,149.2Zm.6-21-1.2.5-1,1a8.3,8.3,0,0,0-.8,1.2,3.4,3.4,0,0,0-.5,1.1,3.5,3.5,0,0,0,1.3-.5l1.2-.8a5.2,5.2,0,0,0,1.1-1l.8-1h-.2l-.3-.2Zm1.6-9,.3-.5c0-.2.2-.4.3-.6l1-1,1-1,1-1,.9-1.2c.1-.2.3-.3.4-.4l.5-.3,1.2.5,1.2.5,1.2.6,1,.6.7.5a.9.9,0,0,1,.3.7,2,2,0,0,1-.4,1.3,5.7,5.7,0,0,1-1.1,1.1l-1.5.9a8.5,8.5,0,0,1-1.7.6l-1.8.5h-2.7l-1-.3a1.5,1.5,0,0,1-.6-.5.9.9,0,0,1-.3-.6C280.7,119.4,280.7,119.3,280.8,119.2Z"/><path class="cls-20" d="M308.4,145.2l.9-1.5.9-1.1a6,6,0,0,1,1.1-.6,2.8,2.8,0,0,1,1.3-.3,3.4,3.4,0,0,1,1.4.5l1.6,1.1a10.7,10.7,0,0,1,1.4,1.6,4.1,4.1,0,0,1,.5,1.8,1.6,1.6,0,0,1-.3.8,8.3,8.3,0,0,1-.8,1.2,4.5,4.5,0,0,1-1.1,1.3,14.2,14.2,0,0,1-1.3,1.2l-2.2-.6a7.2,7.2,0,0,1-2-.9,4.1,4.1,0,0,1-1.4-1.2,2.2,2.2,0,0,1-.5-1.6A3,3,0,0,1,308.4,145.2Zm21.5-26.3-2.4,6.2a48.7,48.7,0,0,1-2.4,5.7,58.6,58.6,0,0,1-3,5.5c-1.1,1.7-2.4,3.5-3.8,5.3l-1.3-.7-1.3-.7-1.2-.7-1-.7a8.6,8.6,0,0,1,.3-1.7,24.2,24.2,0,0,1,.6-2.8c.3-1.1.6-2.3,1-3.6l1.2-3.9,1.4-4.1,1.5-3.7a18,18,0,0,1,1.4-3.1,9.5,9.5,0,0,1,1.4-2.1,1.6,1.6,0,0,1,.8-.6,2,2,0,0,1,1.1-.3l1.3.2,1.4.4,1.5.7,1.2,1c.1.1.1.2.1.4l.6.5c.1.2.3.4.3.6Z"/><path class="cls-20" d="M860.1,160.1l-1.2-.3-1.5-1a17.7,17.7,0,0,1-1.7-1.4l-1.6-1.5-1.6-1.5a15.8,15.8,0,0,1-1.3-1.3q-.5,1.3-.9,3c-.3,1.1-.6,2.2-1,3.3l-1,3.4c-.4,1.1-.7,2.2-1,3.2l-.9,2.9c-.3.9-.5,1.7-.7,2.4a6.4,6.4,0,0,1-.2.7.8.8,0,0,1-.2.4q0,.2-.3.3h-.6a3.2,3.2,0,0,1-1.6-.4,5.9,5.9,0,0,1-1.7-1,4.3,4.3,0,0,1-1.2-1.1,1.7,1.7,0,0,1-.5-1.1.4.4,0,0,1-.1-.3v-.4a14.5,14.5,0,0,1,.4-3.5c.2-1.2.5-2.4.8-3.7a33,33,0,0,1,1.2-3.8l1.3-3.9c.4-1.3.8-2.6,1.3-3.8s.7-2.5,1-3.7h.1a2.9,2.9,0,0,1,.2-.9,2,2,0,0,1,.4-.8c.1-.2.4-.3.7-.5l1.2-.2a7.7,7.7,0,0,1,1.9,1.5l2.2,2.3,2.3,2.5,2,2.3a13.6,13.6,0,0,0,1.6,1.7c.4.4.7.7.9.7l1-.8,1.6-1.5,2.2-1.8,2.4-2,2.6-1.9a19.2,19.2,0,0,1,2.6-1.7,13.4,13.4,0,0,1,2.3-1.3,4.9,4.9,0,0,1,1.9-.5l1.2.9,1.2.9a5.2,5.2,0,0,1,1,1.1,2.3,2.3,0,0,1,.6,1.2l-.4.8v.2h0l-1.3,3-1.5,3.7c-.5,1.3-1.1,2.7-1.6,4.1s-1.1,2.8-1.6,4.2l-1.5,4-1.4,3.7-1.1,2.9a13.5,13.5,0,0,1-.8,1.9h-.9l-1.8-.2-1.7-.7a6,6,0,0,1-1.3-.9,2.4,2.4,0,0,1-.5-1.4,8.2,8.2,0,0,1,.3-1.8c.2-.8.4-1.6.7-2.6a24.3,24.3,0,0,1,.9-3c.4-1,.8-2.1,1.1-3.1s.8-2,1.1-2.9l1-2.5c.3-.8.5-1.3.6-1.7l.3-.7Z"/><path class="cls-20" d="M887.7,174.3a2.3,2.3,0,0,1-1.5-.5l-1.9-1.2a26.1,26.1,0,0,1-2-1.7l-2-2-1.9-2.1-1.5-1.9-1.1-1.4a2.9,2.9,0,0,1-.3-.9v-.3a15.9,15.9,0,0,1,1-5.9,15.1,15.1,0,0,1,2.7-4.6,19,19,0,0,1,4.1-3.4,24.2,24.2,0,0,1,4.9-2.3,34.1,34.1,0,0,1,5.5-1.4,32.7,32.7,0,0,1,5.4-.4,5.3,5.3,0,0,1,2.3.6,7.9,7.9,0,0,1,2.3,1.4,20.8,20.8,0,0,1,2.1,2.1,19.5,19.5,0,0,1,1.7,2.3,9.5,9.5,0,0,1,1.1,2.3,6.3,6.3,0,0,1,.5,2.1v.3a.4.4,0,0,1,.1.3,13.6,13.6,0,0,1-.9,4.8,26.4,26.4,0,0,1-2.3,4.4,25.5,25.5,0,0,1-3.6,3.8,22.3,22.3,0,0,1-4.4,2.9,23.7,23.7,0,0,1-5,2A19.3,19.3,0,0,1,887.7,174.3Zm.5-4.9a10.1,10.1,0,0,0,3.7-.7,21.6,21.6,0,0,0,3.6-2,20.7,20.7,0,0,0,3.2-2.8,17,17,0,0,0,2.7-3.3,13.5,13.5,0,0,0,1.8-3.3,7.3,7.3,0,0,0,.7-3.1,2.1,2.1,0,0,0-.5-1.1l-1.2-1.1-1.4-.8a2.4,2.4,0,0,0-1.2-.4,21.1,21.1,0,0,0-3.5.5,15.5,15.5,0,0,0-3.6,1.3,13.5,13.5,0,0,0-3.3,1.9,13.4,13.4,0,0,0-2.7,2.6,11.7,11.7,0,0,0-1.9,3,10.4,10.4,0,0,0-.7,3.5v.3l.4.6.7,1a22963153500281.1,22963153500281.1,0,0,0,2,2.6l.8.9Z"/><path class="cls-20" d="M917.4,143l.9.4.9.4,2.3,1.1,1.9,1v.2a4.1,4.1,0,0,1-.4,1.5l-.8,2.6-1.3,3.5c-.5,1.3-1,2.6-1.6,4l-1.7,4.1c-.5,1.3-1.1,2.6-1.6,3.8l-1.4,3.4-1.2,2.4a2.7,2.7,0,0,1-.6,1l-.9,1-1.2.7-1.4.2h-1.1l-.7-.4a1.6,1.6,0,0,1-.4-.7,2.2,2.2,0,0,1-.1-.9,17,17,0,0,1,.3-2.6q.3-1.7.9-3.9c.3-1.4.8-3,1.3-4.6l1.5-5c.6-1.6,1.2-3.2,1.7-4.7s1.2-2.9,1.7-4.1,1.1-2.2,1.6-3A3,3,0,0,1,917.4,143Z"/><path class="cls-20" d="M954.8,143.4v.8l-2.4,4.6c-.8,1.7-1.7,3.5-2.5,5.4l-2.4,5.8c-.7,1.9-1.4,3.8-2,5.6s-1.1,3.5-1.5,5a28,28,0,0,0-.8,4c0,.2-.1.3-.3.5l-.5.6-.9.4-1.1.2L939,176a3.3,3.3,0,0,1-1.6-1.1,16.7,16.7,0,0,1-1.4-2.7c-.5-1.1-.9-2.4-1.4-3.7s-.8-2.8-1.3-4.3l-1.2-4.3c-.2-.7-.4-1.2-.5-1.7l-.3-1.3-.4-1a3.8,3.8,0,0,0-.3-1c-.2.6-.5,1.4-.7,2.2s-.6,1.7-.9,2.7-.7,1.9-1.1,2.9-.7,2-1,3-.7,2-1.1,2.9-.6,1.8-.9,2.6l-.8,2.1a11.4,11.4,0,0,0-.6,1.4c0,.1-.1.1-.3.1l-1.5-.3-1.1-.6-1-.8-.9-.7-.6-.5-.4-.5.4-1.3q.9-3.3,2.1-6.6l2.6-6.6c.9-2.2,1.9-4.4,2.9-6.5s2-4.3,3.1-6.3c.1-.3.4-.5.6-.7l.8-.2.8.2a1.9,1.9,0,0,1,.7.6,36.5,36.5,0,0,1,2.6,4.4c.7,1.6,1.5,3.3,2.1,4.9s1.2,3.4,1.7,5.1.9,3.3,1.3,4.8c.4-1.2.8-2.5,1.3-3.8l1.5-4.2,1.6-4a40.2,40.2,0,0,1,1.8-3.6l.5-.8a7.6,7.6,0,0,1,.8-1.1l1.2-1.2,1.4-1.2,1.7-.8a6,6,0,0,1,2-.3h1.1l.2.2h.3Z"/><path class="cls-20" d="M948.6,169.8c.1,0,.1.2.2.3S948.6,170.2,948.6,169.8Zm10.7.3,1.9-.3,2.2-.5,2.2-1,2-1.4a7.9,7.9,0,0,0,1.4-1.7,4.4,4.4,0,0,0,.8-2h0a2.3,2.3,0,0,0-.7-1.1l-1.5-1.2-2.2-1.2a20.1,20.1,0,0,1-2.5-1.4,20.1,20.1,0,0,1-2.5-1.4,18.4,18.4,0,0,1-2.2-1.7,8,8,0,0,1-1.5-1.7,3.6,3.6,0,0,1-.6-2,3.3,3.3,0,0,1,.7-2.1,9.1,9.1,0,0,1,2-1.9,11.7,11.7,0,0,1,2.7-1.5l3-1.1,3-.6,2.3-.3,2.1.2,1.8.5a4.5,4.5,0,0,1,1.3,1.1,3.4,3.4,0,0,1,.7,1.6,4.7,4.7,0,0,1,.2,1.7v.3l-3.4.2-3.3.2-2.9.3a4.6,4.6,0,0,0-2,.9l1.9.9,2.8,1.4,2.7,1.4,2.5,1.6,2,1.7a8,8,0,0,1,1.3,1.9,4.1,4.1,0,0,1,.5,2.1v.4a10.2,10.2,0,0,1-.8,4,16.5,16.5,0,0,1-2,3.1,13.7,13.7,0,0,1-2.9,2.5,13.5,13.5,0,0,1-3.4,1.7,22.6,22.6,0,0,1-3.7,1.1,23.1,23.1,0,0,1-3.7.3,23.8,23.8,0,0,1-3.9-.3l-3.2-.8a14.5,14.5,0,0,1-2.5-1l-1.8-1.2a6,6,0,0,1-1.1-1.2l-.2-.4v-.4c.1-.7.2-1.1.5-1.3l.9-.5h1.5a4.1,4.1,0,0,1,1.6.3,7.3,7.3,0,0,1,1.7,1.5,1.7,1.7,0,0,0,1.9.8A8.8,8.8,0,0,1,959.3,170.1Z"/><path class="cls-20" d="M996.3,153.2c-.3-.1-.4-.4-.5-.7a4.3,4.3,0,0,1-.2-1.1V151a1.2,1.2,0,0,1-.6-.6,2.7,2.7,0,0,1-.1-1.8,3.6,3.6,0,0,1,.4-.9,3,3,0,0,1,.8-.8l1.4-.6c.1,0,.2-.1.2-.3v-.4a1.4,1.4,0,0,1,.2-.6l.3-.4.9-.3,1.3-.3,1.3-.2h2.6l.6.2.3.3v.9h1.4l2.3-.2,2.8-.2h2.8a22.2,22.2,0,0,1,3.7.3,9.8,9.8,0,0,1,3,1.1,5.4,5.4,0,0,1,2.7,5.2v1.2a16.3,16.3,0,0,1-1.6,4.7,20.8,20.8,0,0,1-3,4.3,25.4,25.4,0,0,1-4.1,3.9,58.5,58.5,0,0,1-4.8,3.4,51.2,51.2,0,0,1-5.2,2.7,40.1,40.1,0,0,1-5,2,32.5,32.5,0,0,1-4.6,1.3,18,18,0,0,1-3.7.5l-1-.2-.7-.4-.5-.7a3.6,3.6,0,0,0-.4-.9v-.2c0-.1.2-.2.4-.3l.4-.5v-.4l.3-.2h.7a3.1,3.1,0,0,0,.5-.9,18.9,18.9,0,0,0,.6-1.8c.2-.7.4-1.6.7-2.5s.5-1.9.7-2.9.5-2,.8-2.9a24.6,24.6,0,0,1,.7-2.9l.6-2.4C996,154.2,996.2,153.7,996.3,153.2Zm3.8,13.3a5.6,5.6,0,0,0,.6,1.7,45.1,45.1,0,0,0,5.4-2.9,22.5,22.5,0,0,0,4.5-3.5,17.9,17.9,0,0,0,3.4-4.3,24.2,24.2,0,0,0,2.5-5.6l-2.1-.5-2.5-.2h-2.2l-2.1.3-2,.4-1.5.4c-.2.5-.3,1.2-.5,1.9s-.4,1.5-.7,2.3-.4,1.7-.7,2.6-.5,1.8-.8,2.7l-.7,2.5C1000.5,165.2,1000.2,165.9,1000.1,166.5Z"/><path class="cls-20" d="M1019,172.2l-.4-.5-.3-.7a.9.9,0,0,1,.1-.5v-.6c.4-1.3.7-2.6,1.2-4.1s.8-3.1,1.3-4.6.9-3.2,1.4-4.7.9-3.1,1.4-4.5.9-2.6,1.3-3.8a17.8,17.8,0,0,1,1.2-2.7c.1-.3.5-.5,1-.8l2.2-.6,2.9-.6,3.3-.5,3.4-.5,3.2-.3,2.6-.2h1.7l1.4.2a2.1,2.1,0,0,1,1.1.4,1.6,1.6,0,0,1,.7.7,2,2,0,0,1,.3,1.1v.2c-.1.2-.4.3-.6.4l-.8.3h-.6l-6.7,1.6a49.6,49.6,0,0,1-6.7,1.3,1.5,1.5,0,0,0-.8.4,5.3,5.3,0,0,0-.3,1.1,5.6,5.6,0,0,1-.4,1.2l-.3,1-.4,1a10.4,10.4,0,0,0-.3,1.2l1.5-.2,1.8-.3,1.7-.2h1.4l1.3.2,1.1.4a1.6,1.6,0,0,1,.7.7,1.9,1.9,0,0,1,.4.9,3.1,3.1,0,0,1,.1,1l-.9.5-2.3.6-2.3.5-2.3.4-2.4.5-.9.2-.5.2c-.1,0-.2.2-.2.3l-.4.8a18,18,0,0,1-.8,2.1,18,18,0,0,0-.8,2.1,17.2,17.2,0,0,0-.7,2.1c-.3.7-.5,1.3-.7,1.9l3-.6,3.2-.7,3.2-.8,3.3-.8,3.1-.5,3.1-.2a2.1,2.1,0,0,1,1.5.4,1.7,1.7,0,0,1,.5,1.2,3.1,3.1,0,0,1-.2.8c-.2.3-.3.6-.5.7l-3.5,1.2-3.7,1.4-3.9,1.4-4,1.3-.7.2-1.4.3-1.9.4-2.1.4-2,.2h-3.1Z"/><path class="cls-20" d="M862.1,204.5l.2.2.3.3.4.3.2.2-3.2,2.8-3.9,3.6-4.5,4.7-5.3,5.7a15.3,15.3,0,0,1-1.3,1.6c-.5.7-1.1,1.4-1.6,2.2l-1.7,2.4c-.6.8-1.1,1.6-1.6,2.4l-1.1,2a5.8,5.8,0,0,0-.4,1.3,1.5,1.5,0,0,1-.2.8,1,1,0,0,1-.5.4l-.6.2h-.6a2.7,2.7,0,0,1-1.2-.3,3.8,3.8,0,0,1-1.3-.6l-1.3-.7-1-.7a1.9,1.9,0,0,1-.2-.8,3.4,3.4,0,0,1-.1-1v-12c.1-1.6.1-3.2.1-4.8v-7.7a3.4,3.4,0,0,1,.6-1.6,2,2,0,0,1,1.4-.5,2,2,0,0,1,1.3.5,7.5,7.5,0,0,1,1.4,1.2,6.4,6.4,0,0,1,1.3,1.5l1.2,1.4h-.1a1,1,0,0,1,.4.5v.5c-.2,1.5-.4,3-.5,4.4s-.2,2.9-.2,4.4v1.9l1.9-2.1a20.9,20.9,0,0,1,2-2.2l2.1-2,2-1.7,2.4-1.8,2-1.5,1.8-1.3,1.9-1.3,2.1-1.2,2.6-1.5h2.8Z"/><path class="cls-20" d="M862.9,234.3a2.4,2.4,0,0,1-1.5-.5l-1.9-1.2a26.1,26.1,0,0,1-2-1.7c-.7-.6-1.3-1.3-2-2l-1.9-2.1-1.5-1.9a9.4,9.4,0,0,1-1-1.4c-.3-.5-.4-.7-.4-.9v-.3a15.9,15.9,0,0,1,1-5.9,15.1,15.1,0,0,1,2.7-4.6,19,19,0,0,1,4.1-3.4,22.7,22.7,0,0,1,5-2.3,30.5,30.5,0,0,1,5.4-1.4,32.7,32.7,0,0,1,5.4-.4,4.9,4.9,0,0,1,2.3.6,7.9,7.9,0,0,1,2.3,1.4,13.9,13.9,0,0,1,2.1,2.1,19.5,19.5,0,0,1,1.7,2.3,17.1,17.1,0,0,1,1.2,2.3,9.5,9.5,0,0,1,.4,2.1.4.4,0,0,0,.1.3v.3a13.6,13.6,0,0,1-.9,4.8,20.6,20.6,0,0,1-2.3,4.4,30.9,30.9,0,0,1-3.5,3.8,26.6,26.6,0,0,1-4.5,2.9,21.8,21.8,0,0,1-5,2A19.3,19.3,0,0,1,862.9,234.3Zm.5-4.9a10.1,10.1,0,0,0,3.7-.7,21.6,21.6,0,0,0,3.6-2,21.3,21.3,0,0,0,3.3-2.8,16.4,16.4,0,0,0,2.6-3.3,13.5,13.5,0,0,0,1.8-3.3,7.3,7.3,0,0,0,.7-3.1,2.1,2.1,0,0,0-.5-1.1l-1.2-1.1-1.4-.8a2.4,2.4,0,0,0-1.2-.4,22.7,22.7,0,0,0-3.5.5,17.4,17.4,0,0,0-3.6,1.3,13.5,13.5,0,0,0-3.3,1.9,16.6,16.6,0,0,0-2.7,2.6,9.2,9.2,0,0,0-1.8,3,8.4,8.4,0,0,0-.7,3.5v.3l.3.6.7,1a6.4,6.4,0,0,0,1,1.3,14.7,14.7,0,0,0,1,1.3l.8.9Z"/><path class="cls-20" d="M892.7,203l.8.4,1,.4a15.1,15.1,0,0,0,2.2,1.1l1.9,1v.2a6.4,6.4,0,0,1-.3,1.5,25.6,25.6,0,0,0-.9,2.6l-1.3,3.5c-.5,1.3-1,2.6-1.6,4s-1.1,2.7-1.6,4.1-1.1,2.6-1.7,3.8l-1.4,3.4-1.1,2.4a6.1,6.1,0,0,1-.7,1,2.8,2.8,0,0,1-.9,1l-1.2.7-1.3.2h-1.2l-.7-.4a1.6,1.6,0,0,1-.4-.7c0-.2-.1-.5-.1-.9a17,17,0,0,1,.3-2.6q.3-1.7.9-3.9c.4-1.4.8-3,1.3-4.6s1-3.3,1.6-5,1.1-3.2,1.7-4.7a26.7,26.7,0,0,1,1.7-4.1c.5-1.2,1.1-2.2,1.5-3A2.7,2.7,0,0,1,892.7,203Z"/><path class="cls-20" d="M903.1,233a2.9,2.9,0,0,1-1.2,1.8,3.2,3.2,0,0,1-1.8.6,2.5,2.5,0,0,1-1.6-.4,2.7,2.7,0,0,1-1.2-.9,3.5,3.5,0,0,1-.6-1.4,4.7,4.7,0,0,1-.2-1.7v-.7a22.1,22.1,0,0,1,.6-3.4c.3-1.3.7-2.5,1.1-3.9s.8-2.6,1.3-4,.9-2.6,1.3-4,.9-2.5,1.3-3.8.7-2.4,1-3.5h-1l-1.4.2-1.7.2h-1.8l-2.2-.2a5.3,5.3,0,0,1-1.5-.5,1.5,1.5,0,0,1-.8-.8,1.6,1.6,0,0,1-.3-.9,1.8,1.8,0,0,1,.4-.9,2.7,2.7,0,0,1,1.5-.4l6.4-.6,6.5-.6,6.5-.5c2.1-.2,4.4-.3,6.6-.3h1l.8.2.4,1.9.2.8-.7.3-.9.2-9.2,1c-.6,2.1-1.3,4.2-2.1,6.4l-2.4,6.6-2.3,6.6C904.3,228.9,903.7,231,903.1,233Z"/><path class="cls-20" d="M922,222.5a5,5,0,0,0,.3,1.6,6.5,6.5,0,0,0,.8,1.7l1.1,1.5,1.5,1.2a8.4,8.4,0,0,0,3.1-1.6,18.4,18.4,0,0,0,2.6-2.9,25.8,25.8,0,0,0,2.2-3.7c.7-1.3,1.3-2.7,1.9-4.1s1.2-2.7,1.7-4,1-2.4,1.5-3.4a14.2,14.2,0,0,1,1.3-2.5,2.1,2.1,0,0,1,1.2-1h.5l.6.2.4.3.3.3a38.9,38.9,0,0,1-1,5.6,38.3,38.3,0,0,1-1.6,5.8,37.6,37.6,0,0,1-2.5,5.4,23.4,23.4,0,0,1-3.3,4.9,27.2,27.2,0,0,1-4.3,4,18.9,18.9,0,0,1-5.3,2.7,29.2,29.2,0,0,1-5.3-2.8,19.8,19.8,0,0,1-3.7-3.2,9.9,9.9,0,0,1-2.1-3.5,9.4,9.4,0,0,1-.7-3.7,15.8,15.8,0,0,1,.7-4.7,38,38,0,0,1,1.8-4.7c.8-1.6,1.6-3,2.5-4.5l2.5-4a7.1,7.1,0,0,1,1.5-1.8,2.5,2.5,0,0,1,1.7-.6l1.1.3,1.5.7,1.4.9.8.7a1.4,1.4,0,0,1-.2.6l-.3.7a22.7,22.7,0,0,1-1.3,3c-.5,1.2-1.1,2.4-1.8,3.7s-1.2,2.7-1.7,4.1a17.1,17.1,0,0,0-1.2,4.1c0,.4-.1.8-.1,1.2a4.1,4.1,0,0,0-.1,1.1Z"/><path class="cls-20" d="M965.8,239.8a14.6,14.6,0,0,1-3.8-.5,8.6,8.6,0,0,1-2.9-1.3,10,10,0,0,1-2.2-1.9,9.7,9.7,0,0,1-1.5-2.4,20.6,20.6,0,0,1-1.2-2.6l-.9-2.6-.6-2c-.3-.7-.5-1.4-.8-2a17.1,17.1,0,0,0-.7-1.8,4.8,4.8,0,0,0-.9-1.3h-1.6a28.1,28.1,0,0,0-.8,3.1c-.3,1-.5,2.1-.8,3.2s-.5,2.1-.8,3.2-.7,2.2-1.2,3.3H944a5.5,5.5,0,0,1-1.8-.2,3.8,3.8,0,0,1-1.6-.6,2.9,2.9,0,0,1-1.2-1,3,3,0,0,1-.5-1.6v-.2a17.6,17.6,0,0,1,.4-2.5,31.5,31.5,0,0,1,.9-3.6,40.1,40.1,0,0,1,1.2-4.3c.5-1.6.9-3.1,1.4-4.6s1-2.9,1.4-4.3.9-2.6,1.2-3.7.7-1.9.9-2.5.3-.9.2-.9l.4-.2.6-.2.9-.3,1.6-.5,2-.5,2.2-.5,2.3-.3,2-.2a19,19,0,0,1,4.4.5,8.6,8.6,0,0,1,3.2,1.5,5.9,5.9,0,0,1,2,2.4,7.5,7.5,0,0,1,.7,3.5,8.8,8.8,0,0,1-.6,3.3,9.8,9.8,0,0,1-1.7,2.6,11.5,11.5,0,0,1-2.3,2.1l-2.6,1.4-2.6,1-2.1.6,1.2,2.2c.4.8.9,1.7,1.3,2.6s.9,2,1.4,3.4a5.5,5.5,0,0,0,1.4,2.6,13.6,13.6,0,0,1,1.6,1.7l1.6,2,1,.7,1.2.9a5.3,5.3,0,0,1,1.1.9.9.9,0,0,1,.4.8.7.7,0,0,1-.4.6,1.9,1.9,0,0,1-.9.5l-1.1.3Zm-8.3-31.5-2.8.2a9.8,9.8,0,0,0-2.2.6c-.1.6-.4,1.2-.6,2l-.7,2.2c-.2.7-.5,1.4-.7,2s-.3,1.2-.3,1.6h.4a14.3,14.3,0,0,0,2.9-.3,14.7,14.7,0,0,0,2.8-.8l2.6-1a11.8,11.8,0,0,0,2.2-1.4,6.7,6.7,0,0,0,1.5-1.4,2.4,2.4,0,0,0,.5-1.3,1.4,1.4,0,0,0-.4-1.1,3.3,3.3,0,0,0-1.3-.7l-1.8-.5Z"/><path class="cls-20" d="M965.4,232.2l-.3-.5a4.3,4.3,0,0,1-.4-.7c0-.2.1-.3.1-.5l.2-.6c.3-1.3.7-2.6,1.1-4.1s.8-3.1,1.3-4.6.9-3.2,1.4-4.7,1-3.1,1.4-4.5.9-2.6,1.4-3.8.8-2,1.1-2.7a2.6,2.6,0,0,1,1.1-.8l2.1-.6,2.9-.6,3.3-.5,3.4-.5,3.2-.3,2.6-.2H993l1.4.2a1.8,1.8,0,0,1,1.1.4,1.9,1.9,0,0,1,.8.7,2,2,0,0,1,.2,1.1v.2a.9.9,0,0,1-.6.4l-.8.3h-.6l-6.6,1.6a51,51,0,0,1-6.8,1.3c-.4.1-.6.2-.7.4a4.3,4.3,0,0,0-.4,1.1l-.3,1.2-.4,1a4.2,4.2,0,0,1-.4,1,10.4,10.4,0,0,0-.3,1.2l1.5-.2,1.8-.3,1.7-.2H985l1.3.2a3.4,3.4,0,0,1,1.2.4l.7.7a3.9,3.9,0,0,1,.4.9c0,.3.1.6.1,1l-1,.5-2.2.6-2.3.5-2.4.4-2.4.5-.9.2a.5.5,0,0,0-.4.2l-.3.3a3.4,3.4,0,0,0-.3.8l-.9,2.1-.8,2.1c-.2.7-.5,1.4-.7,2.1l-.6,1.9,3-.6,3.1-.7,3.3-.8,3.2-.8,3.2-.5,3-.2a2.4,2.4,0,0,1,1.6.4,2.1,2.1,0,0,1,.4,1.2,3.1,3.1,0,0,1-.2.8,1.3,1.3,0,0,1-.5.7l-3.4,1.2-3.8,1.4a35.4,35.4,0,0,1-3.9,1.4l-4,1.3-.6.2-1.5.3-1.8.4-2.1.4-2.1.2h-3.1Z"/><path class="cls-20" d="M992.5,229.8c.1,0,.1.2.2.3S992.5,230.2,992.5,229.8Zm10.7.3,1.9-.3,2.2-.5,2.2-1,2-1.4a7.9,7.9,0,0,0,1.4-1.7,3.5,3.5,0,0,0,.7-2h0a1.5,1.5,0,0,0-.6-1.1l-1.5-1.2-2.2-1.2a20.1,20.1,0,0,1-2.5-1.4,20.1,20.1,0,0,1-2.5-1.4,12.8,12.8,0,0,1-2.2-1.7,5.9,5.9,0,0,1-1.5-1.7,3.6,3.6,0,0,1-.6-2,3.3,3.3,0,0,1,.7-2.1,9.1,9.1,0,0,1,2-1.9,11.7,11.7,0,0,1,2.7-1.5l3-1.1,2.9-.6,2.4-.3,2.1.2,1.8.5a4.5,4.5,0,0,1,1.3,1.1,3.4,3.4,0,0,1,.7,1.6,4.7,4.7,0,0,1,.2,1.7v.3l-3.4.2-3.3.2-2.9.3a4.1,4.1,0,0,0-2,.9l1.9.9,2.8,1.4,2.7,1.4,2.5,1.6,2,1.7a8,8,0,0,1,1.3,1.9,4.1,4.1,0,0,1,.5,2.1v.4a10.2,10.2,0,0,1-.9,4,12.3,12.3,0,0,1-1.9,3.1,13.7,13.7,0,0,1-2.9,2.5,13.5,13.5,0,0,1-3.4,1.7,22.6,22.6,0,0,1-3.7,1.1l-3.7.3a23.8,23.8,0,0,1-3.9-.3,24.9,24.9,0,0,1-3.2-.8,14.5,14.5,0,0,1-2.5-1l-1.8-1.2a4,4,0,0,1-1.1-1.2.8.8,0,0,1-.2-.4v-.4a2.4,2.4,0,0,1,.4-1.3l1-.5h1.5a4.1,4.1,0,0,1,1.6.3,5.5,5.5,0,0,1,1.6,1.5,1.9,1.9,0,0,0,2,.8A8.3,8.3,0,0,1,1003.2,230.1Z"/><path class="cls-20" d="M1038.6,231.3l.7-1.1a3.6,3.6,0,0,1,.8-.9l.8-.5a1.8,1.8,0,0,1,1-.2l1.1.3,1.3.9a6.9,6.9,0,0,1,1.1,1.3,2.3,2.3,0,0,1,.4,1.4,1.4,1.4,0,0,1-.2.6l-.6,1-.9,1a4.4,4.4,0,0,1-1.1.9l-1.7-.4a5.2,5.2,0,0,1-1.5-.7,4,4,0,0,1-1.2-1,1.7,1.7,0,0,1-.4-1.2A2.7,2.7,0,0,1,1038.6,231.3Zm16.9-20.8c-.6,1.8-1.2,3.4-1.8,5s-1.2,3-1.9,4.5-1.5,2.9-2.3,4.3a37.7,37.7,0,0,1-3.1,4.2l-1-.6-1-.6-1-.5-.7-.5a4.5,4.5,0,0,1,.2-1.4c.1-.6.3-1.3.5-2.2s.4-1.8.7-2.8l1-3.1c.4-1.1.7-2.2,1.1-3.2s.8-2,1.1-3a26.8,26.8,0,0,1,1.2-2.4,5.5,5.5,0,0,1,1.1-1.6l.6-.6h1.9l1.2.3,1.1.6a3.4,3.4,0,0,1,.9.8c.1,0,.1.1.1.3l.5.3.3.6Z"/><path class="cls-20" d="M407.6,294.2a4.3,4.3,0,0,1-2.7-3.5,18.1,18.1,0,0,1,0-5.7,40.4,40.4,0,0,1,1.5-6.5c.8-2.3,1.5-4.3,2.3-6.1h-.2c-1.1,1.5-2.3,3.3-3.6,5.3s-2.3,3.9-3.6,6.5-2.6,5.6-3.9,9a1.8,1.8,0,0,1-.5.7l-.6.4h-.9l-1.3-.3-.8-.4a5,5,0,0,1-2.1-3.8,18.1,18.1,0,0,1,.3-5.6,29.8,29.8,0,0,1,1.6-6.2c.7-2.2,1.4-4.1,2.1-5.8H395a48.6,48.6,0,0,0-3.9,5.8c-1.1,1.9-2.4,4.3-3.8,7.1a83.4,83.4,0,0,0-4.1,9.7.7.7,0,0,1-.4.6h-.4a6.7,6.7,0,0,1-2.8-.7l-1.6-1.3a1.5,1.5,0,0,1-.4-1.1.4.4,0,0,1,0-.5,24.7,24.7,0,0,1,.4-3.6c.3-1.3.5-2.6.8-3.9s.6-2.5,1-3.8.6-2.3.9-3.3.5-1.5.7-2.3.5-1.4.7-1.9a5.8,5.8,0,0,0,.4-1.3l.9-2.6a17.8,17.8,0,0,0,.9-2.3,15.4,15.4,0,0,0,.8-1.9.3.3,0,0,1,.1-.2c0-.1.1-.2.2-.5l.6-.6c.2-.3.5-.3.9-.2a11.6,11.6,0,0,1,2,.8,9.6,9.6,0,0,1,2.3,1.9c.1,0,.1.1.2.3v.4a1.5,1.5,0,0,1,.1.7,3.4,3.4,0,0,1-.1.9,1.9,1.9,0,0,1-.5,1c0,.2,0,.2-.1.3l-.5,1.1-.8,1.6a5.8,5.8,0,0,1-.6,1.5,11.2,11.2,0,0,0-.5,1.3l-.8,2c1-1.6,1.9-3.3,3-4.9a38.2,38.2,0,0,1,3.1-4.2A16.5,16.5,0,0,1,397,266a3.3,3.3,0,0,1,2.9-.1l1.9,1a16.8,16.8,0,0,1,2.1,1.8,3,3,0,0,1,.4,1v1.1a6.4,6.4,0,0,1-.6,1.6l-.8,1.4a20.1,20.1,0,0,0-1.1,2.1c-.4.8-.9,1.7-1.3,2.7a13.9,13.9,0,0,0-1.2,2.8c.9-1.9,2-3.9,3.2-6a46.3,46.3,0,0,1,3.7-5.4,18.7,18.7,0,0,1,3.8-3.7,3.1,3.1,0,0,1,3.4-.4l1.9,1a17.4,17.4,0,0,1,2.2,1.8l.3,1a2,2,0,0,1,0,1.1,6.4,6.4,0,0,1-.6,1.6l-1,2c-.5.8-1,1.8-1.6,2.9s-1,2.4-1.6,3.6a29.1,29.1,0,0,0-1.2,3.5,9.3,9.3,0,0,0-.4,2.7,1.6,1.6,0,0,0,.9,1.4,2.8,2.8,0,0,0,2.2-.6,16,16,0,0,0,2.1-2.3,29,29,0,0,0,1.9-2.9l1.3-2.5.4-.6a2.1,2.1,0,0,1,1.6-.5c.3.1.6.2.6.4a.8.8,0,0,1,.2.6,3.1,3.1,0,0,1-.2.8c-.4.8-.8,1.8-1.5,3s-1.4,2.4-2.2,3.7a31.8,31.8,0,0,1-2.7,3.7,12.3,12.3,0,0,1-3.1,2.6,6,6,0,0,1-1.9.6,4.8,4.8,0,0,1-1.7,0A4.7,4.7,0,0,1,407.6,294.2Z"/><path class="cls-20" d="M440,279.8c-.6,1.4-1.5,3-2.5,4.9A37.4,37.4,0,0,1,434,290a14.7,14.7,0,0,1-4.5,3.8,6.3,6.3,0,0,1-5.2.7,4.7,4.7,0,0,1-2.5-1.6,6.6,6.6,0,0,1-1.5-2.6,15.9,15.9,0,0,1-.8-3.3,20.4,20.4,0,0,1,0-3.5c.2-1.5.4-2.9.7-4.3a23.8,23.8,0,0,1,1.2-3.5,21.4,21.4,0,0,1,4.6-8,9.2,9.2,0,0,1,3.5-2.4,4.1,4.1,0,0,1,4.2.5,6.3,6.3,0,0,1,2-1.3,4.5,4.5,0,0,1,2.3-.3,4,4,0,0,1,2.9,1.7,6.8,6.8,0,0,1,1.1,3.2,12.1,12.1,0,0,1,0,3.8c-.2,1.3-.4,2.4-.6,3.4a17.4,17.4,0,0,0,4.1-2,22.4,22.4,0,0,0,2.9-2.3,2.1,2.1,0,0,1,.8-.6h.5c.2.1.3.3.3.8a1.7,1.7,0,0,1,0,1,4.4,4.4,0,0,1-.7,1.9,18,18,0,0,1-3.9,2.9A15.2,15.2,0,0,1,440,279.8Zm-14.1,3.7a15.5,15.5,0,0,0-.6,3.7,5.4,5.4,0,0,0,.5,2.1,1.6,1.6,0,0,0,1,1,2.7,2.7,0,0,0,2.4-.5,14.2,14.2,0,0,0,2.6-2.4,39.9,39.9,0,0,0,2.3-3.7c.7-1.4,1.3-2.8,1.9-4.2a7.6,7.6,0,0,1-2.3-1.3,6.3,6.3,0,0,1-2.1-3,8.2,8.2,0,0,1-.4-3.5,10.4,10.4,0,0,0-2,3,32.9,32.9,0,0,0-1.7,3.9A47,47,0,0,0,425.9,283.5Zm8.5-11.4a5,5,0,0,0,.2,1.8,3.5,3.5,0,0,0,.7,1.2,2.8,2.8,0,0,0,1,.9l.8.3c.8-2.6,1.1-4.5.8-5.8a1.3,1.3,0,0,0-.7-.9,1.4,1.4,0,0,0-1.1-.1,1.5,1.5,0,0,0-1,.7A5,5,0,0,0,434.4,272.1Z"/><path class="cls-20" d="M454.2,268.8a1.3,1.3,0,0,1,.4.9,2,2,0,0,1,0,1.1,4.3,4.3,0,0,1-.7,1.6c-.2.4-.5,1.1-1,2a25.7,25.7,0,0,0-1.5,2.9c-.6,1.2-1.1,2.4-1.6,3.6a29.1,29.1,0,0,0-1.2,3.5,9.3,9.3,0,0,0-.4,2.7,1.5,1.5,0,0,0,1,1.4,2.1,2.1,0,0,0,2-.6,14.9,14.9,0,0,0,2.1-2.2,29,29,0,0,0,1.9-2.9c.5-1,1-1.8,1.3-2.5a2.3,2.3,0,0,1,.5-.7,2,2,0,0,1,1.5-.5c.6.2.9.5.9,1.1a2.5,2.5,0,0,1-.2.7,20.7,20.7,0,0,1-1.5,3l-2.2,3.8q-1.3,1.9-2.7,3.6a13.9,13.9,0,0,1-3,2.6,5.6,5.6,0,0,1-1.9.7h-1.8a4.7,4.7,0,0,1-1.7-.3,4.1,4.1,0,0,1-2.2-2.3,7.8,7.8,0,0,1-.8-3.5,17.5,17.5,0,0,1,.5-4.4c.3-1.6.7-3.2,1.1-4.7a89.6,89.6,0,0,1,4.8-12.2,2.2,2.2,0,0,1,.5-.8,1.7,1.7,0,0,1,.6-.6.8.8,0,0,1,.8-.1l2.1,1A11.3,11.3,0,0,1,454.2,268.8Zm-2.4-5.7a2.3,2.3,0,0,1-.6-2.5,14.4,14.4,0,0,1,.7-2.2,6.2,6.2,0,0,1,.9-1.2l.6-1,.5-.7a4.5,4.5,0,0,1,.9-1l.9-.5a1.1,1.1,0,0,1,1,.3,6.8,6.8,0,0,1,1.3,1.2,10.9,10.9,0,0,1,1.3,1.7,11.9,11.9,0,0,1,.8,2,3.1,3.1,0,0,1-.4,2.1l-.9,1.4A18.6,18.6,0,0,0,457,265a1.7,1.7,0,0,1-1.2.5,4.8,4.8,0,0,1-1.4-.5,6,6,0,0,1-1.5-.9A5.5,5.5,0,0,1,451.8,263.1Z"/><path class="cls-20" d="M463.4,280.6c1.1-1.9,2.3-3.8,3.6-5.8a56.5,56.5,0,0,1,3.9-5.1,20.1,20.1,0,0,1,3.9-3.5,3.3,3.3,0,0,1,3.4-.3,9.2,9.2,0,0,1,2,1,11.8,11.8,0,0,1,2.1,1.8,1.8,1.8,0,0,1,.4,1,2,2,0,0,1,0,1.1,4.3,4.3,0,0,1-.7,1.6c-.2.4-.6,1.1-1,2a25.7,25.7,0,0,0-1.5,2.9c-.6,1.2-1.1,2.4-1.6,3.6a18.2,18.2,0,0,0-1.2,3.5,9.3,9.3,0,0,0-.4,2.7,1.5,1.5,0,0,0,1,1.4,2.4,2.4,0,0,0,2-.6,12.1,12.1,0,0,0,2.2-2.3l1.8-2.9a20.5,20.5,0,0,0,1.3-2.5,1.3,1.3,0,0,1,.5-.6,1.7,1.7,0,0,1,1.5-.5.9.9,0,0,1,.9,1,3.1,3.1,0,0,1-.2.8,20.7,20.7,0,0,1-1.5,3c-.7,1.2-1.4,2.4-2.3,3.7a31.8,31.8,0,0,1-2.7,3.7,11.6,11.6,0,0,1-2.9,2.6l-1.9.6a5.4,5.4,0,0,1-1.8,0,4.7,4.7,0,0,1-1.7-.3,4.5,4.5,0,0,1-2.7-3.5,18.1,18.1,0,0,1,0-5.7,32.4,32.4,0,0,1,1.6-6.5c.7-2.3,1.4-4.3,2.1-6.1h-.1a36.1,36.1,0,0,0-4.8,5.8,57.6,57.6,0,0,0-4.4,7,70,70,0,0,0-4.3,9.8.7.7,0,0,1-.4.6h-.4a6.7,6.7,0,0,1-2.8-.7,7.5,7.5,0,0,1-1.6-1.3,1.5,1.5,0,0,1-.4-1.1.4.4,0,0,1,0-.5,24.7,24.7,0,0,1,.4-3.6c.3-1.3.5-2.6.8-3.9l.9-3.8q.5-1.8.9-3.3a20.9,20.9,0,0,0,.8-2.3c.3-.7.5-1.4.7-1.9l.4-1.3.9-2.6a17.8,17.8,0,0,0,.9-2.3,15.4,15.4,0,0,0,.8-1.9.3.3,0,0,1,.1-.2c0-.1.1-.2.2-.5a1.7,1.7,0,0,1,.6-.6c.2-.3.5-.3.9-.2l1.9.8a8,8,0,0,1,2.3,1.9l.3.3v.4a1.5,1.5,0,0,1,.1.7,4.1,4.1,0,0,1-.6,1.9v.2c-.1,0-.1,0-.1.1a3.8,3.8,0,0,0-.5,1.1c-.3.6-.5,1.1-.8,1.6l-.7,1.5a11.2,11.2,0,0,0-.5,1.3,22.5,22.5,0,0,0-.8,2.4Z"/><path class="cls-20" d="M487.3,288.7a.1.1,0,0,1,.1.1l-.2.6a.8.8,0,0,0-.2.6,1.3,1.3,0,0,0-.1.6.7.7,0,0,0,.2.6c.1.2.4.3.8.4a1.2,1.2,0,0,0,1.2-.3,2.8,2.8,0,0,0,.5-1.1,5.4,5.4,0,0,0,0-1.8c0-.6-.1-1.3-.1-1.9s-.3-2.6-.4-3.7-.3-2.2-.4-3.3v-1.1a28,28,0,0,1-1.4,2.5l-1,1.9-.6.6a.8.8,0,0,1-.6.2c-.2,0-.4-.1-.7-.4a2,2,0,0,1-.4-.8c-.1-.2,0-.5,0-.7l.4-.8a28.6,28.6,0,0,1,1.2-2.7c.5-1.1,1-2.1,1.4-3.2l1.2-2.8c.4-.8.6-1.5.8-1.9a29,29,0,0,1,.4-3.4c.2-1,.4-1.6.7-1.8a3.5,3.5,0,0,1,1.6-.9,7.3,7.3,0,0,1,2.1-.6,9.9,9.9,0,0,1,2.4-.3h2.3a2,2,0,0,1,.7.6,2,2,0,0,1,.2.9,6.2,6.2,0,0,1-.5,1.8,25,25,0,0,0-.8,2.5,25.3,25.3,0,0,0-.7,3.4,23.8,23.8,0,0,0-.3,3.9,17.6,17.6,0,0,0,.2,4c.2,1.3.4,2.9.7,4.7a16.7,16.7,0,0,1-.1,5,7.8,7.8,0,0,1-2.2,4.2c-1.1,1.2-3,1.9-5.6,2a10.7,10.7,0,0,1-3.9-.6,6.9,6.9,0,0,1-2.4-1.8,5.3,5.3,0,0,1-.4-3.9l.3-.9a2,2,0,0,1,.4-.8,2.3,2.3,0,0,1,.7-.7h1.1l.8.4A1.1,1.1,0,0,1,487.3,288.7Z"/><path class="cls-20" d="M523.1,295.2a9.1,9.1,0,0,1-3.1-.9,4.9,4.9,0,0,1-2.3-2.6,9.3,9.3,0,0,1-.7-4.7,26.1,26.1,0,0,1,1.8-7.4,27.6,27.6,0,0,1,3.7-7.1,20.8,20.8,0,0,1,4.2-4.2,9.7,9.7,0,0,1,4.1-1.7,8.5,8.5,0,0,1,3.6.4,4.2,4.2,0,0,1,2.5,2.4,108.7,108.7,0,0,1,5.3-12.6c1.8-3.8,3.5-7,5-9.7s3.5-6,5.1-8.5l1-.9,1-.5a1.1,1.1,0,0,1,1.1.2l1.4,1.3a9.5,9.5,0,0,1,1.5,2,5.9,5.9,0,0,1,.9,2.4,3.1,3.1,0,0,1-.3,2.3c-.4.5-1,1.4-2,2.6s-2.2,2.9-3.5,4.8a77,77,0,0,0-4.3,6.9,75.5,75.5,0,0,0-4.5,9c-.9,2.2-1.8,4.6-2.6,7s-1.5,5.2-2.2,7.9a16.7,16.7,0,0,0-.3,4.2v.2a1.5,1.5,0,0,0,.9,1.3,2.3,2.3,0,0,0,2.1-.6,16,16,0,0,0,2.1-2.3,27.5,27.5,0,0,0,1.9-2.8l1.3-2.5a2.5,2.5,0,0,1,.4-.7,1.8,1.8,0,0,1,1.6-.5c.6.2.9.5.9,1a2.4,2.4,0,0,1-.2.8c-.5,1-1.2,2.4-2.2,4.2a33.9,33.9,0,0,1-3.4,5,10.5,10.5,0,0,1-.8,1.1,15.3,15.3,0,0,1-1.8,1.8h-.4a3.6,3.6,0,0,1-1.2.8l-1.6.4h-1.2a4.2,4.2,0,0,1-2.3-1.6,11.1,11.1,0,0,1-1.3-2.7,15.7,15.7,0,0,1-.6-2.8c-.1-.8-.2-1.4-.2-1.8a27.3,27.3,0,0,1-2.3,3.8,36.3,36.3,0,0,1-2.7,2.8,14.1,14.1,0,0,1-2.7,1.8A6.6,6.6,0,0,1,523.1,295.2ZM526,281a24.3,24.3,0,0,0-1.9,5.6,7.2,7.2,0,0,0-.2,2.8c.2.7.5,1.1,1.1,1.2a3.4,3.4,0,0,0,3.2-1.5,24.1,24.1,0,0,0,2.9-4,43.9,43.9,0,0,0,2.8-6.1,9.1,9.1,0,0,0,.9-3.3,7.2,7.2,0,0,0,0-2.1,1.9,1.9,0,0,0-.5-1l-.6-.3h-.8a3.8,3.8,0,0,0-1.6.9,10.4,10.4,0,0,0-2.3,2.6A33.1,33.1,0,0,0,526,281Z"/><path class="cls-20" d="M548.4,278.8a26.7,26.7,0,0,1,3.7-7.2,17.8,17.8,0,0,1,4.2-4.1,8,8,0,0,1,4.1-1.7,7,7,0,0,1,3.6.3,3.8,3.8,0,0,1,2.1,1.8,7.5,7.5,0,0,1,.9,2.5c0,.3.1.6.1.9a4.9,4.9,0,0,1-.1,1.2,14.2,14.2,0,0,1-2.5,7.1,14.2,14.2,0,0,1-3.9,3.8,18.6,18.6,0,0,1-6.8,2.6,6.7,6.7,0,0,0,.2,2.8,2.7,2.7,0,0,0,1.9,2l.8.2h.2a9.3,9.3,0,0,0,2.9-.2,10,10,0,0,0,2.6-1,8,8,0,0,0,2.1-1.5,12.1,12.1,0,0,0,1.6-1.6l.3-.3.3-.4c.3-.4.5-.7.6-.7s1.2-1.8,1.7-2.7a10.6,10.6,0,0,0,1.2-2.4,2.3,2.3,0,0,1,.5-.7,2,2,0,0,1,1.5-.5,1,1,0,0,1,.7.5c.1.1.1.3.1.6a1.1,1.1,0,0,1-.2.7,18.9,18.9,0,0,1-1,2.1,12.8,12.8,0,0,1-1.4,2.5,15.1,15.1,0,0,1-1.6,2.7l-.4.6-.6.7a28.1,28.1,0,0,1-4.3,4,10.4,10.4,0,0,1-6,2.1h-2.3a10.6,10.6,0,0,1-5-1.5,7.2,7.2,0,0,1-2.7-2.8,8,8,0,0,1-.9-3.2,13,13,0,0,1,.2-3.4h0A24.2,24.2,0,0,1,548.4,278.8Zm7.3,1.4-.6,1.2-.4,1a8.4,8.4,0,0,0,4-1.5,12.4,12.4,0,0,0,4.5-5.2,5.6,5.6,0,0,0,.6-2.2c.1-1.1,0-1.7-.3-1.9l-.6-.3-1.2.3a9.2,9.2,0,0,0-1.6,1.2,18.9,18.9,0,0,0-2,2.7A39.6,39.6,0,0,0,555.7,280.2Z"/><path class="cls-20" d="M385,347.5l-.6,1.3-.9,1.8a5.6,5.6,0,0,1-.4,1.2,6.1,6.1,0,0,0-.5,1.2c.8-1.1,1.6-2.2,2.6-3.4a21.6,21.6,0,0,1,2.9-3.1,16.1,16.1,0,0,1,2.9-2.1,4.4,4.4,0,0,1,2.7-.3,14.1,14.1,0,0,1,2.9,1.8,8.2,8.2,0,0,1,1.9,2.2,6.4,6.4,0,0,1,1,3.2,23.1,23.1,0,0,1-.4,3.9,43.4,43.4,0,0,1-1.2,5.3,45.3,45.3,0,0,1-2.3,5.7,26.6,26.6,0,0,1-3.4,5.1,14.4,14.4,0,0,1-4.5,3.7,9.7,9.7,0,0,1-5.6,1.3,4.9,4.9,0,0,1-2.2-.6l-1.7-1.5a10.7,10.7,0,0,1-1.3-3,86.8,86.8,0,0,0-1.9,10.4c-.5,3.3-.9,6.3-1.1,9s-.3,5.2-.3,7.4.1,3.9.1,5.3a15.5,15.5,0,0,1,0,3.1,3.9,3.9,0,0,1-1.2,2.4,11.4,11.4,0,0,1-2.3,1.5,14.3,14.3,0,0,1-2.7.9l-2.2.2a1.3,1.3,0,0,1-1.1-.5,3.4,3.4,0,0,1-.6-1.2,3.8,3.8,0,0,1-.3-1.6,104.5,104.5,0,0,1,.8-10.5c.4-3.3.9-7.2,1.7-11.6a145.7,145.7,0,0,1,3.3-14.5c.2-.6.3-1.2.5-2l.6-2.2a7.8,7.8,0,0,1,.5-1.4c.1-.4.3-.9.4-1.4s.5-1.7.7-2.5a15.5,15.5,0,0,1,.7-2.3,8.7,8.7,0,0,1,.5-1.9,8.4,8.4,0,0,1,.5-1.7,27.6,27.6,0,0,0,.8-2.7l.8-2.2.5-1.4a26.4,26.4,0,0,1,1-3c.3-.9.7-1.8,1-2.5l.9-2.2c0-.1,0-.1.1-.2l.2-.4a2.4,2.4,0,0,1,.6-.9,1.2,1.2,0,0,1,1-.2l2.2,1a6.6,6.6,0,0,1,2.7,2.1h.1l.2.3a5.2,5.2,0,0,1,.2,1.1,4.6,4.6,0,0,1-.7,2.3h0A.1.1,0,0,0,385,347.5Zm6.8,1.6c-1.7,1.5-3.5,3.1-5.1,4.7a46.2,46.2,0,0,0-4.3,4.5,25.1,25.1,0,0,0-3.4,5.1,2.4,2.4,0,0,0-.2.8,1.9,1.9,0,0,0-.2.8c0,.3.2.8.3,1.6s.4,1.5.7,2.3a8.8,8.8,0,0,0,1.2,2.1,2.9,2.9,0,0,0,1.8,1.1c.5,0,1.1-.4,1.9-1.2a16.6,16.6,0,0,0,2.4-3.4,42.2,42.2,0,0,0,2.2-4.7,36.3,36.3,0,0,0,1.9-5.2,31.7,31.7,0,0,0,1-4.8A8.5,8.5,0,0,0,391.8,349.1Z"/><path class="cls-20" d="M424.1,359.9c-.7,1.6-1.6,3.4-2.7,5.5a40.7,40.7,0,0,1-4,5.9,16.9,16.9,0,0,1-5,4.3,7.6,7.6,0,0,1-5.9.8,6,6,0,0,1-2.8-1.7,9.8,9.8,0,0,1-1.7-3,13.4,13.4,0,0,1-.8-3.7,12.7,12.7,0,0,1,0-3.9,34.6,34.6,0,0,1,.7-4.8c.4-1.6.9-2.9,1.3-4.1s1.1-2.6,1.7-3.8a22.9,22.9,0,0,1,3.6-5.1,10.5,10.5,0,0,1,3.9-2.7,4.8,4.8,0,0,1,4.7.5,7.4,7.4,0,0,1,2.2-1.4,5.7,5.7,0,0,1,2.6-.3,4.5,4.5,0,0,1,3.2,1.8,7.8,7.8,0,0,1,1.3,3.6,15.5,15.5,0,0,1,0,4.3,26.2,26.2,0,0,1-.7,3.8,20.2,20.2,0,0,0,4.7-2.2,19.6,19.6,0,0,0,3.2-2.6,2.4,2.4,0,0,1,.9-.6.5.5,0,0,1,.6-.1c.1,0,.3.3.3.8a2.4,2.4,0,0,1,0,1.2,4,4,0,0,1-.9,2.1,17.8,17.8,0,0,1-4.3,3.3A16.4,16.4,0,0,1,424.1,359.9ZM408.4,364a10.2,10.2,0,0,0-.7,4.2,4.6,4.6,0,0,0,.5,2.3,1.5,1.5,0,0,0,1.1,1.2,3.7,3.7,0,0,0,2.8-.6,17.5,17.5,0,0,0,2.8-2.7,32.1,32.1,0,0,0,2.6-4.1c.8-1.6,1.5-3.2,2.2-4.8a6.4,6.4,0,0,1-2.7-1.4,8.6,8.6,0,0,1-2.3-3.4,10.4,10.4,0,0,1-.4-3.9,11.8,11.8,0,0,0-2.3,3.4,40.3,40.3,0,0,0-1.9,4.3C409.5,360.2,408.9,362,408.4,364Zm9.5-12.8a4.1,4.1,0,0,0,.2,2,3.7,3.7,0,0,0,.8,1.4l1,1,1,.4c.9-2.9,1.2-5.1.9-6.5a1.4,1.4,0,0,0-.8-1,1.3,1.3,0,0,0-1.2-.2,2.1,2.1,0,0,0-1.2.8A5.2,5.2,0,0,0,417.9,351.2Z"/><path class="cls-20" d="M451.5,311.4a8.8,8.8,0,0,1,1.5,1.4,7.2,7.2,0,0,1,1.7,2.2,7.4,7.4,0,0,1,1,2.7,3.8,3.8,0,0,1-.4,2.6,25.5,25.5,0,0,1-2.2,3c-1.1,1.4-2.5,3.2-4,5.4s-3.1,4.7-4.8,7.7a79.2,79.2,0,0,0-5,10.1,72.4,72.4,0,0,0-3,7.9c-.8,2.7-1.6,5.7-2.3,8.9a17.6,17.6,0,0,0-.5,2.7,10.9,10.9,0,0,0,.1,1.9v.4a1.5,1.5,0,0,0,.9,1.3,2.8,2.8,0,0,0,2.4-.6,15.4,15.4,0,0,0,2.4-2.6,22,22,0,0,0,2.1-3.2l1.5-2.8a2.3,2.3,0,0,1,.5-.7l.7-.4a2,2,0,0,1,1.1-.2c.3.1.6.2.7.4a1.5,1.5,0,0,1,.1.7,2,2,0,0,1-.2,1c-.5,1.1-1.3,2.6-2.4,4.6a42.8,42.8,0,0,1-3.7,5.7l-1,1.2-1,1-1,.9-.4.4a6.1,6.1,0,0,1-1.4.7l-1.8.5h-1.4a4.5,4.5,0,0,1-2.8-2,21.7,21.7,0,0,1-1.5-3.5,22.6,22.6,0,0,1-.5-4.7,14.8,14.8,0,0,1-.1-2.1,15,15,0,0,1,.2-2,26.5,26.5,0,0,1,.6-4.2c.3-1.3.6-2.5.8-3.5a33.7,33.7,0,0,1,1-3.4,137,137,0,0,1,6.2-15.6,133.5,133.5,0,0,1,6-12,103.3,103.3,0,0,1,6.3-10.3,6,6,0,0,1,1.2-1.1l1.1-.6A1.7,1.7,0,0,1,451.5,311.4Z"/><path class="cls-20" d="M467.3,311.4a15.5,15.5,0,0,1,1.5,1.4,9.2,9.2,0,0,1,1.7,2.2,9.9,9.9,0,0,1,1,2.7,3.8,3.8,0,0,1-.5,2.6,21.6,21.6,0,0,1-2.1,3,63.5,63.5,0,0,0-4,5.4c-1.5,2.2-3.1,4.7-4.9,7.7a79.3,79.3,0,0,0-4.9,10.1,72.4,72.4,0,0,0-3,7.9,87.6,87.6,0,0,0-2.4,8.9,16,16,0,0,0-.4,2.7v2.3a1.7,1.7,0,0,0,1,1.3,2.8,2.8,0,0,0,2.4-.6,15.4,15.4,0,0,0,2.4-2.6,22,22,0,0,0,2.1-3.2l1.5-2.8c0-.2.2-.4.5-.7l.7-.4a1.6,1.6,0,0,1,1-.2c.4.1.7.2.8.4a1.5,1.5,0,0,1,.1.7,4.4,4.4,0,0,1-.2,1c-.5,1.1-1.3,2.6-2.4,4.6a55.7,55.7,0,0,1-3.7,5.7l-1,1.2-1,1-1,.9-.4.4a6.1,6.1,0,0,1-1.4.7l-1.8.5h-1.4a4.5,4.5,0,0,1-2.8-2,11.9,11.9,0,0,1-1.5-3.5,31.6,31.6,0,0,1-.6-4.7,14.7,14.7,0,0,1,0-2.1c0-.6.1-1.3.1-2s.4-2.9.7-4.2a26.1,26.1,0,0,1,.8-3.5,19.1,19.1,0,0,1,1-3.4,159.2,159.2,0,0,1,6.1-15.6q3.3-7.1,6-12c2.2-3.9,4.3-7.3,6.4-10.3a3.8,3.8,0,0,1,1.1-1.1l1.1-.6A1.8,1.8,0,0,1,467.3,311.4Z"/><path class="cls-20" d="M482.3,375.7a5.8,5.8,0,0,1-2.1.7h-2l-1.9-.4a4.9,4.9,0,0,1-2.5-2.6,13.1,13.1,0,0,1-.8-4.2,24.5,24.5,0,0,1-4.9,5.2,7.6,7.6,0,0,1-5.6,1.7h-.3a4.7,4.7,0,0,1-3.7-2.3,10.6,10.6,0,0,1-1.3-3.9,12.2,12.2,0,0,1,.1-3.3,17.2,17.2,0,0,1,.5-2.9l.9-3.4a24.5,24.5,0,0,1,.8-2.9l.9-2.7.7-2.1.3-.7a2.4,2.4,0,0,1,.2-.8c.3-1,.7-2,1-2.9l1-2.5a12.8,12.8,0,0,0,.9-2.2.3.3,0,0,1,.1-.2l.2-.5c.1-.3.4-.5.7-.8s.6-.3,1-.2a10.1,10.1,0,0,1,2.2.9,8.2,8.2,0,0,1,2.5,2.1l.3.4a.8.8,0,0,1,.2.5,1.5,1.5,0,0,1,.1.7,4.3,4.3,0,0,1-.7,2.2v.2a.1.1,0,0,0-.1.1,5.9,5.9,0,0,0-.6,1.2l-.8,1.8a8.7,8.7,0,0,0-.7,1.7l-.7,1.4c-.4,1.3-.9,2.6-1.3,3.9s-.9,2.7-1.3,4.2a13.6,13.6,0,0,0-.6,2.4,6,6,0,0,0-.2,2.6c.1,1,.3,1.5.8,1.7a.6.6,0,0,0,.7.2c.9.2,1.8-.4,2.8-1.5a25,25,0,0,0,2.9-4.1c.8-1.6,1.6-3.1,2.3-4.6s1.1-2.5,1.3-3,1.1-2.9,1.6-4.2,1-2.6,1.4-3.6l1.6-3.3a2.1,2.1,0,0,1,.6-1,4.6,4.6,0,0,1,.7-.7.8.8,0,0,1,.8-.1,12.9,12.9,0,0,1,2.3,1.2,17.9,17.9,0,0,1,2.8,2.2,4.9,4.9,0,0,1,.4,1.1,3.1,3.1,0,0,1-.1,1.3,6,6,0,0,1-.7,1.8l-1.2,2.2c-.5.9-1,2.1-1.7,3.3l-1.8,4c-.5,1.4-1,2.7-1.3,3.9a12.5,12.5,0,0,0-.4,3.1,1.5,1.5,0,0,0,1.1,1.5,2.6,2.6,0,0,0,2.3-.6,12.1,12.1,0,0,0,2.4-2.6,22,22,0,0,0,2.1-3.2l1.5-2.8a3.5,3.5,0,0,1,.5-.8,2.4,2.4,0,0,1,1.8-.5c.4.1.6.2.7.4a1.5,1.5,0,0,1,.1.7,2,2,0,0,1-.2,1c-.3.8-.9,1.9-1.6,3.3s-1.6,2.7-2.5,4.2a40.1,40.1,0,0,1-3.1,4.1A12.8,12.8,0,0,1,482.3,375.7Z"/><path class="cls-20" d="M502.1,346.5a72.4,72.4,0,0,0-3,7.9c-.9,2.7-1.7,5.7-2.5,8.9a15.5,15.5,0,0,0-.3,4.6h0c0,.1.1.1.1.3a1.5,1.5,0,0,0,.9,1.3,2.9,2.9,0,0,0,2.4-.6,11.9,11.9,0,0,0,2.3-2.6,22,22,0,0,0,2.1-3.2,28.3,28.3,0,0,0,1.5-2.8,2.1,2.1,0,0,1,.6-.8,2.1,2.1,0,0,1,1.6-.5c.7.1,1,.4,1,1.1a4.4,4.4,0,0,1-.2,1c-.5,1.1-1.3,2.6-2.4,4.6a55.7,55.7,0,0,1-3.7,5.7l-1.1,1.2a17,17,0,0,1-1.9,1.9h-.2c-.1.1-.2.2-.2.3l-1.5.7-1.7.5h-1.4a5,5,0,0,1-2.8-2.1,11.9,11.9,0,0,1-1.5-3.5,31.6,31.6,0,0,1-.6-4.7v-2c0-.6.1-1.3.1-2s.4-2.9.6-4.2.6-2.5.9-3.5a33.7,33.7,0,0,1,1-3.4c1.2-3.6,2.5-6.9,3.8-10s2.6-6,3.9-8.7H473.6a1.7,1.7,0,0,1-1.4-.5l-.3-.6a4.8,4.8,0,0,1,.3-3A4.7,4.7,0,0,1,474,326a11.5,11.5,0,0,1,2.8-.9,11.3,11.3,0,0,1,3.2-.1l11.5.4,11.4.5,3-5.6,2.5-4.1a33.4,33.4,0,0,1,2.3-3.4,3.8,3.8,0,0,1,1.1-1.1l1.1-.6a1.8,1.8,0,0,1,1.4.3,8.8,8.8,0,0,1,1.5,1.4,9.2,9.2,0,0,1,1.7,2.2,9.9,9.9,0,0,1,1,2.7,3.8,3.8,0,0,1-.4,2.6l-1.7,2.3-2.9,3.8,8.5.4,11.5.3,13,.4,13,.4,11.6.3,8.8.3h.9a2.7,2.7,0,0,1,1.2.3l1,.4c.3.2.5.4.5.6s-.3.5-.9.7l-2,.4-2.3.2h-1.8l-8.8.3-11.5.2H509.8a74.4,74.4,0,0,0-3.9,6.5A85.7,85.7,0,0,0,502.1,346.5Z"/><path class="cls-20" d="M518.3,347.5a1.4,1.4,0,0,1,.5,1,2.8,2.8,0,0,1,0,1.3,10.8,10.8,0,0,1-.7,1.8l-1.2,2.2-1.7,3.3-1.8,4A26.6,26.6,0,0,0,512,365a12.5,12.5,0,0,0-.4,3.1,1.7,1.7,0,0,0,1.1,1.5,2.2,2.2,0,0,0,2.3-.6,19.3,19.3,0,0,0,2.4-2.5,22,22,0,0,0,2.1-3.2l1.5-2.8c0-.3.2-.5.5-.8a2.4,2.4,0,0,1,1.7-.6,1.2,1.2,0,0,1,1,1.2,3.7,3.7,0,0,1-.2.9l-1.7,3.3-2.5,4.3c-1,1.4-2,2.7-3.1,4a11.1,11.1,0,0,1-3.3,2.9,5.8,5.8,0,0,1-2.2.8,6,6,0,0,1-1.9,0,5.4,5.4,0,0,1-1.9-.3,5.1,5.1,0,0,1-2.6-2.6,9.8,9.8,0,0,1-.8-4,22,22,0,0,1,.5-4.9,51.1,51.1,0,0,1,1.3-5.3,101.4,101.4,0,0,1,5.3-13.6l.6-1,.7-.7a1,1,0,0,1,.9-.1,10.3,10.3,0,0,1,2.3,1.2A11.8,11.8,0,0,1,518.3,347.5Zm-2.7-6.4a3.1,3.1,0,0,1-.7-2.8,12.3,12.3,0,0,1,.9-2.4c.3-.6.7-1,.9-1.4a7.6,7.6,0,0,0,.8-1.1l.6-.8a3.5,3.5,0,0,1,.9-1.1l1-.6a2.4,2.4,0,0,1,1.2.4,7.6,7.6,0,0,1,1.4,1.3,9.4,9.4,0,0,1,1.4,1.9,5,5,0,0,1,.9,2.3,3.1,3.1,0,0,1-.3,2.3l-1.1,1.5-2,2.7a1.7,1.7,0,0,1-1.3.5,4.1,4.1,0,0,1-1.7-.5l-1.6-1A7.7,7.7,0,0,1,515.6,341.1Z"/><path class="cls-20" d="M543.5,359.9l-2.8,5.5a34,34,0,0,1-4,5.9,15.7,15.7,0,0,1-5,4.3,7.6,7.6,0,0,1-5.9.8,6.6,6.6,0,0,1-2.8-1.7,9.8,9.8,0,0,1-1.7-3,13.4,13.4,0,0,1-.8-3.7,25.4,25.4,0,0,1,0-3.9,24.1,24.1,0,0,1,.8-4.8c.4-1.6.8-2.9,1.2-4.1s1.1-2.6,1.7-3.8a22.9,22.9,0,0,1,3.6-5.1,10.5,10.5,0,0,1,3.9-2.7,4.9,4.9,0,0,1,4.8.5,6,6,0,0,1,2.1-1.4,5.8,5.8,0,0,1,2.6-.3,4.5,4.5,0,0,1,3.2,1.8,7.8,7.8,0,0,1,1.3,3.6,15.5,15.5,0,0,1,0,4.3,26.2,26.2,0,0,1-.7,3.8,18.4,18.4,0,0,0,4.7-2.2,19.6,19.6,0,0,0,3.2-2.6l.9-.6a.5.5,0,0,1,.6-.1c.2,0,.3.3.4.8v1.2a6.7,6.7,0,0,1-.9,2.1,20.9,20.9,0,0,1-4.4,3.3A16.6,16.6,0,0,1,543.5,359.9ZM527.7,364a12.2,12.2,0,0,0-.7,4.2,6.1,6.1,0,0,0,.5,2.3c.3.7.6,1.1,1.2,1.2a3.6,3.6,0,0,0,2.7-.6,14.2,14.2,0,0,0,2.8-2.7,32.1,32.1,0,0,0,2.6-4.1c.8-1.6,1.5-3.2,2.2-4.8a6,6,0,0,1-2.6-1.4,7.6,7.6,0,0,1-2.3-3.4,8.8,8.8,0,0,1-.5-3.9,11.8,11.8,0,0,0-2.3,3.4c-.7,1.4-1.3,2.9-1.9,4.3S528.2,362,527.7,364Zm9.5-12.8a5.9,5.9,0,0,0,.2,2,3.7,3.7,0,0,0,.8,1.4,5.2,5.2,0,0,0,1.1,1l.9.4c1-2.9,1.2-5.1.9-6.5a1.4,1.4,0,0,0-.8-1,1.2,1.2,0,0,0-1.2-.2,1.7,1.7,0,0,0-1.1.8A5.1,5.1,0,0,0,537.2,351.2Z"/><path class="cls-20" d="M554.2,360.8a76,76,0,0,1,4-6.5,58.4,58.4,0,0,1,4.4-5.8,18.3,18.3,0,0,1,4.4-3.8,3.8,3.8,0,0,1,3.8-.5l2.2,1.2a9.1,9.1,0,0,1,2.4,2,5.4,5.4,0,0,1,.5,1.1,6.6,6.6,0,0,1-.1,1.3,6,6,0,0,1-.7,1.8l-1.2,2.2-1.7,3.3-1.8,4a25.4,25.4,0,0,0-1.3,3.9,12.5,12.5,0,0,0-.4,3.1,1.5,1.5,0,0,0,1,1.5,2.8,2.8,0,0,0,2.4-.6,15.4,15.4,0,0,0,2.4-2.6l2.1-3.2c.6-1.2,1.1-2.1,1.4-2.8a1.8,1.8,0,0,1,.5-.8,2.4,2.4,0,0,1,1.8-.5,1,1,0,0,1,.9,1.1,2,2,0,0,1-.2,1c-.4.8-.9,1.9-1.7,3.3s-1.6,2.7-2.5,4.2a39.1,39.1,0,0,1-3,4.1,12.8,12.8,0,0,1-3.4,2.9,5.8,5.8,0,0,1-2.1.7h-2l-1.9-.4a5.3,5.3,0,0,1-3-3.9,20.2,20.2,0,0,1,0-6.5,40.4,40.4,0,0,1,1.7-7.3c.9-2.5,1.7-4.8,2.5-6.8h-.1a40.8,40.8,0,0,0-5.5,6.5,57.9,57.9,0,0,0-4.9,7.9,80.6,80.6,0,0,0-4.8,10.9c-.1.4-.2.7-.5.8h-.5a6.7,6.7,0,0,1-3.1-.9,5.4,5.4,0,0,1-1.8-1.4,1.7,1.7,0,0,1-.5-1.2v-.6c.1-1.2.3-2.6.5-4l.9-4.4c.3-1.5.7-2.9,1-4.2s.7-2.6,1.1-3.7l.9-2.7c.3-.8.5-1.5.7-2.1a12.6,12.6,0,0,1,.5-1.5c.3-1,.7-2,1-2.9l1-2.5a12.8,12.8,0,0,0,.9-2.2c0-.1,0-.2.1-.2l.2-.5a2.1,2.1,0,0,1,.6-.8,1.1,1.1,0,0,1,1.1-.2,10.1,10.1,0,0,1,2.2.9,8.2,8.2,0,0,1,2.5,2.1l.3.4a.8.8,0,0,1,.2.5,1.5,1.5,0,0,1,.1.7,4.3,4.3,0,0,1-.7,2.2v.2a.1.1,0,0,0-.1.1,5.9,5.9,0,0,0-.6,1.2l-.8,1.8c-.3.5-.5,1.1-.8,1.7a7.3,7.3,0,0,0-.6,1.4c-.3.9-.6,1.9-1,2.8S554.5,359.7,554.2,360.8Z"/><text class="cls-21" transform="translate(76.9 261.5)">+<tspan class="cls-22"><tspan x="-51.2" y="48">ESP</tspan><tspan class="cls-23" x="15.7" y="48">A</tspan><tspan x="40" y="48">CES</tspan></tspan><tspan class="cls-24"><tspan x="-41.8" y="109.2">SRS</tspan></tspan></text></g></g></svg>